<?xml version="1.0" encoding="UTF-8" standalone="no"?>
<svg
   xmlns:dc="http://purl.org/dc/elements/1.1/"
   xmlns:cc="http://creativecommons.org/ns#"
   xmlns:rdf="http://www.w3.org/1999/02/22-rdf-syntax-ns#"
   xmlns:svg="http://www.w3.org/2000/svg"
   xmlns="http://www.w3.org/2000/svg"
   version="1.1"
   id="svg2"
   viewBox="0 0 744.09449 473.516"
   height="473.51599"
   width="744.09448">
  <defs
     id="defs4" />
  <metadata
     id="metadata7">
    <rdf:RDF>
      <cc:Work
         rdf:about="">
        <dc:format>image/svg+xml</dc:format>
        <dc:type
           rdf:resource="http://purl.org/dc/dcmitype/StillImage" />
        <dc:title></dc:title>
      </cc:Work>
    </rdf:RDF>
  </metadata>
  <g
     transform="translate(0,-578.84624)"
     id="layer1">
    <path
       id="path4295"
       transform="translate(0,552.36224)"
       d="m 30.882812,26.640625 0,51.589844 0,0.503906 -11.134765,0 0,5.568359 -3.878906,0 0,-5.568359 -11.6640629,0 0,5.568359 -3.8535156,0 0,10.076172 3.8535156,0 0,5.566406 -3.8535156,0 0,10.050778 3.8535156,0 0,5.59375 -3.8535156,0 0,10.05078 3.8535156,0 0,4.71094 -3.8535156,0 0,6.01953 0,2.64649 5.1386719,0 0,3.375 5.2382816,0 0,-6.02149 -2.619141,0 0,-2.92187 2.619141,0 0,2.92187 1.259765,0 0,2.64649 3.904297,0 0,3.375 5.166016,0 0,-3.375 2.568359,0 0,-2.64649 2.619141,0 0,-2.92187 1.285156,0 0,2.92187 -1.285156,0 0,6.02149 4.636718,0 0,6.02148 -4.636718,0 0,6.04492 4.636718,0 0,6.02149 -4.636718,0 0,6.01953 4.636718,0 0,6.02148 -4.636718,0 0,6.04493 4.636718,0 0,6.02148 -4.636718,0 0,5.13867 -2.59375,0 0,5.56641 3.904297,0 0,-4.68555 3.326171,0 0,0.50391 0,51.59179 0,51.5918 0.503907,0 0,6.44922 3.853515,0 0,5.56641 -3.853515,0 0,10.05078 3.853515,0 0,5.59375 -3.853515,0 0,10.05078 3.853515,0 0,4.71094 -3.853515,0 0,6.01953 0,2.64648 5.138672,0 0,3.375 5.240234,0 0,-6.02148 -2.621094,0 0,-2.92188 2.621094,0 0,2.92188 1.257813,0 0,2.64648 3.90625,0 0,3.375 5.164062,0 0,-3.375 2.568359,0 0,-2.64648 2.621094,0 0,-2.92188 1.283203,0 0,2.92188 -1.283203,0 0,6.02148 5.164063,0 0,-6.02148 0,-48.44141 0.503906,0 31.035156,0 0,-8.3125 3.34961,0 0,-5.56836 -3.34961,0 0,-10.05078 3.34961,0 0,-5.5918 -3.34961,0 0,-10.05273 3.34961,0 0,-5.56641 -3.34961,0 0,-6.44922 0,-3.62695 3.34961,0 0,-5.56836 0,-4.68554 -3.34961,0 0,-10.05079 3.34961,0 0,-5.59179 -3.34961,0 0,-10.05078 3.34961,0 0,-5.56836 -3.34961,0 0,-6.44922 0,-3.62695 3.34961,0 0,-2.89649 1.259765,0 0,-6.02148 -4.609375,0 0,-6.04493 4.609375,0 0,-6.02148 -4.609375,0 0,-6.01953 4.609375,0 0,-6.02149 -4.609375,0 0,-6.04492 4.609375,0 0,-6.02148 -4.609375,0 0,-2.8711 0,-3.15039 4.609375,0 0,2.64649 0,3.375 5.240237,0 0,-6.02149 5.16406,0 0,6.02149 5.16406,0 0,-6.02149 5.18946,0 0,6.02149 5.13867,0 0,3.57812 3.85351,0 0,5.56641 -3.82812,0 0,-3.12305 -5.16406,0 0,6.04492 5.13867,0 0,6.02149 -5.13867,0 0,6.01953 5.16406,0 0,-4.91211 3.82812,0 0,5.59375 -3.85351,0 0,5.33984 -5.13867,0 0,6.04493 5.16406,0 0,-1.33399 3.82812,0 0,4.71094 -3.85351,0 0,2.64453 -5.13867,0 0,5.13867 -2.59571,0 0,5.56641 3.9043,0 0,-4.68555 3.85547,0 5.11328,0 0,3.37696 5.24023,0 0,-6.02149 -2.62109,0 0,-2.92187 2.62109,0 0,2.92187 1.25977,0 0,2.64453 3.9043,0 0,3.37696 5.16406,0 0,-3.37696 2.57031,0 0,-2.64453 2.61914,0 0,-2.92187 1.28516,0 0,2.92187 -1.28516,0 0,6.02149 4.63477,0 0,6.01953 -4.63477,0 0,6.04687 4.63477,0 0,6.01953 -4.63477,0 0,6.02149 4.63477,0 0,6.02148 -4.63477,0 0,6.04492 4.63477,0 0,6.02149 -4.63477,0 0,-2.64649 0,-3.375 -5.18945,0 0,3.375 0,2.64649 -5.16406,0 0,-2.64649 0,-3.375 -5.16407,0 0,3.375 0,2.64649 -5.24023,0 0,-2.64649 0,-3.375 -5.13867,0 0,6.02149 0,3.375 5.13867,0 0,2.64453 0,3.375 5.24023,0 0,-6.01953 5.16407,0 0,6.01953 5.16406,0 0,-6.01953 5.18945,0 0,6.01953 4.63477,0 0,6.02148 -4.63477,0 0,6.04688 4.63477,0 0,6.01953 -4.63477,0 0,6.02148 4.63477,0 0,6.01953 -4.63477,0 0,6.04688 4.63477,0 0,6.01953 -4.63477,0 0,5.13867 -2.5957,0 0,5.56836 3.90625,0 0,-4.68554 3.32422,0 0,0.5039 32.06836,0 4.60937,0 0,2.8711 5.24024,0 0,-2.8711 5.16406,0 0,2.8711 5.16406,0 0,-2.8711 5.18945,0 0,2.8711 5.16407,0 0,-2.8711 0.5039,0 0,-3.62695 3.34961,0 0,-2.89844 1.25977,0 0,-6.01953 -4.60938,0 0,-6.04688 4.60938,0 0,-6.01953 -4.60938,0 0,-6.02148 4.60938,0 0,-6.01953 -4.60938,0 0,-6.04688 4.60938,0 0,-6.02148 -4.60938,0 0,-2.8711 0,-3.14843 4.60938,0 0,-6.02149 -4.60938,0 0,-0.52929 0,-51.58985 0,-41.89258 0,-6.52539 4.60938,0 0,-6.01953 -4.60938,0 0,-6.04687 4.60938,0 0,-6.01953 -4.60938,0 0,-6.02149 4.60938,0 0,-6.02148 -4.60938,0 0,-6.044924 4.60938,0 0,-6.021485 -4.60938,0 0,-2.871093 4.60938,0 0,2.871093 5.24023,0 0,-2.871093 5.16406,0 0,2.871093 5.16407,0 0,-2.871093 5.18945,0 0,2.871093 4.63477,0 0,6.021485 -4.63477,0 0,6.044924 4.63477,0 0,6.02148 -4.63477,0 0,6.02149 5.16406,0 0,-6.02149 30.50586,0 0,30.63281 32.06836,0 0,-30.63281 31.03516,0 0,-20.958982 30.0039,0 0,42.396482 -11.13476,0 0,5.56641 -3.87891,0 0,-5.56641 -11.66406,0 0,5.56641 -3.85352,0 0,10.07812 3.85352,0 0,5.56641 -3.85352,0 0,10.05078 3.85352,0 0,5.59375 -3.85352,0 0,10.05078 3.85352,0 0,4.71094 -3.85352,0 0,6.01953 0,2.64453 5.13868,0 0,3.37696 5.23828,0 0,-6.02149 -2.61914,0 0,-2.92187 2.61914,0 0,2.92187 1.25976,0 0,2.64453 3.90625,0 0,3.37696 5.16407,0 0,-3.37696 2.56835,0 0,-2.64453 2.6211,0 0,-2.92187 1.2832,0 0,2.92187 -1.2832,0 0,6.02149 4.63476,0 0,6.01953 -4.63476,0 0,6.04687 4.63476,0 0,6.01953 -4.63476,0 0,6.02149 4.63476,0 0,6.02148 -4.63476,0 0,6.04492 4.63476,0 0,6.02149 -4.63476,0 0,5.13867 -2.5957,0 0,5.56641 3.90429,0 0,-4.68555 3.32617,0 0,0.5039 0,51.5918 32.06836,0 31.03516,0 0,-3.62695 3.34961,0 0,-2.89844 1.25977,0 0,-6.01953 -4.60938,0 0,-6.04688 4.60938,0 0,-6.01953 -4.60938,0 0,-6.02148 4.60938,0 0,-6.01953 -4.60938,0 0,-6.04688 4.60938,0 0,-6.02148 -4.60938,0 0,-2.8711 0,-3.14843 4.60938,0 0,-6.02149 -4.60938,0 0,-0.52929 0,-41.89258 0,-8.3125 3.34961,0 0,-5.56641 -3.34961,0 0,-10.05078 3.34961,0 0,-5.59375 -3.34961,0 0,-10.05078 3.34961,0 0,-5.56641 -3.34961,0 0,-6.44922 0,-3.6289 3.34961,0 0,-2.89649 1.25977,0 0,-6.01953 -4.60938,0 0,-6.04687 4.60938,0 0,-6.01953 -4.60938,0 0,-6.02149 4.60938,0 0,-6.02148 -4.60938,0 0,-6.044924 4.60938,0 0,-6.021485 -4.60938,0 0,-2.871093 0,-0.503907 4.60938,0 0,3.375 5.24023,0 0,-6.019531 -2.62109,0 0,-2.921875 2.62109,0 0,2.921875 1.25977,0 0,2.644531 3.90429,0 0,3.375 5.16406,0 0,-3.375 2.56836,0 0,-2.644531 2.6211,0 0,-2.921875 1.28515,0 0,2.921875 -1.28515,0 0,6.019531 5.13867,0 0,3.578125 3.85352,0 0,5.566406 -3.82813,0 0,-3.123046 -5.16406,0 0,6.044924 5.13867,0 0,6.02148 -5.13867,0 0,6.02149 5.16406,0 0,-4.91407 3.82813,0 0,5.59375 -3.85352,0 0,5.33985 -5.13867,0 0,6.04687 5.16406,0 0,-1.33594 3.82813,0 0,5.56641 -3.85352,0 0,1.78906 -5.13867,0 0,5.13868 -2.59571,0 0,5.56835 3.90625,0 0,-4.68554 3.82813,0 0,6.95312 3.85352,0 0,5.56641 -3.85352,0 0,10.05078 3.85352,0 0,5.59375 -3.85352,0 0,10.05078 3.85352,0 0,4.71094 -3.85352,0 0,6.01953 0,2.64453 5.13867,0 0,3.37696 5.24024,0 0,-6.02149 -2.61915,0 0,-2.92187 2.61915,0 0,2.92187 1.25976,0 0,2.64453 3.9043,0 0,3.37696 5.16406,0 0,-3.37696 2.57031,0 0,-2.64453 2.61914,0 0,-2.92187 1.28516,0 0,2.92187 -1.28516,0 0,6.02149 4.63477,0 0,6.01953 -4.63477,0 0,6.04687 4.63477,0 0,6.01953 -4.63477,0 0,6.02149 4.63477,0 0,6.02148 -4.63477,0 0,6.04492 4.63477,0 0,6.02149 -4.63477,0 0,-2.64649 0,-3.375 -5.18945,0 0,3.375 0,2.64649 -5.16406,0 0,-2.64649 0,-3.375 -5.16406,0 0,3.375 0,2.64649 -5.24024,0 0,-2.64649 0,-3.375 -5.13867,0 0,6.02149 0,3.375 -5.13867,0 0,6.01953 5.13867,0 0,6.02148 -5.13867,0 0,6.04688 5.13867,0 0,6.01953 -5.13867,0 0,6.02148 5.13867,0 0,6.01953 -5.13867,0 0,6.04688 5.13867,0 0,6.01953 -5.13867,0 0,5.13867 -2.59571,0 0,5.56836 3.90625,0 0,-4.68554 3.85352,0 0,-2.64454 5.11328,0 0,2.64454 0,3.375 5.24024,0 0,-6.01954 5.16406,0 0,6.01954 5.16406,0 0,-6.01954 5.18945,0 0,6.01954 5.13868,0 0,3.57812 3.85351,0 0,5.56641 -3.82812,0 0,-3.12305 -5.16407,0 0,6.04492 5.13868,0 0,6.02149 -5.13868,0 0,6.01953 5.16407,0 0,-4.91211 3.82812,0 0,5.59375 -3.85351,0 0,5.33984 -5.13868,0 0,6.04492 5.16407,0 0,-1.33398 3.82812,0 0,4.71094 -3.85351,0 0,2.64453 -5.13868,0 0,5.13867 -2.5957,0 0,5.56836 3.90625,0 0,-4.68555 3.85352,0 5.11328,0 0,3.375 5.24023,0 0,-6.02148 -2.61914,0 0,-2.92188 2.61914,0 0,2.92188 1.25977,0 0,2.64648 3.90429,0 0,3.375 5.16407,0 0,-3.375 2.57031,0 0,-2.64648 2.61914,0 0,-2.92188 1.28516,0 0,2.92188 -1.28516,0 0,6.02148 5.16406,0 0,-6.02148 0,-3.375 5.11328,0 0,-6.02149 -5.11328,0 0,-6.04492 5.11328,0 0,-6.02148 -5.11328,0 0,-6.01953 5.11328,0 0,-6.02149 -5.11328,0 0,-6.04492 5.11328,0 0,-6.02148 -5.11328,0 0,-2.8711 0.50391,0 4.60937,0 0,2.8711 5.24024,0 0,-2.8711 5.16406,0 0,2.8711 5.16406,0 0,-2.8711 5.18946,0 0,2.8711 5.16406,0 0,-2.8711 0.5039,0 0,-3.62695 3.35157,0 0,-2.89844 1.25781,0 0,-6.01953 -4.60938,0 0,-6.04688 4.60938,0 0,-6.01953 -4.60938,0 0,-6.02148 4.60938,0 0,-6.01953 -4.60938,0 0,-6.04688 4.60938,0 0,-6.02148 -4.60938,0 0,-2.8711 4.60938,0 0,2.8711 5.24023,0 0,-2.8711 5.16407,0 0,2.8711 5.16406,0 0,-2.8711 5.18945,0 0,2.8711 5.16407,0 0,-2.8711 0.5039,0 31.03516,0 0,-0.5039 7.23047,0 0,-5.56641 3.8789,0 0,4.68555 -3.85351,0 0,5.56641 3.8789,0 0,-4.68555 11.61328,0 0,-5.56641 3.9043,0 0,4.68555 -3.8789,0 0,5.56641 3.90429,0 0,-4.68555 3.85352,0 0,-6.01953 5.11523,0 0,-6.02149 -5.11523,0 0,-6.04492 5.11523,0 0,-6.02148 -5.11523,0 0,-6.02149 5.11523,0 0,-6.01953 -5.11523,0 0,-6.04687 5.11523,0 0,-6.01953 -5.11523,0 0,-2.87305 0.5039,0 4.61133,0 0,2.87305 5.23828,0 0,-2.87305 5.16407,0 0,2.87305 5.16601,0 0,-2.87305 5.1875,0 0,2.87305 5.16602,0 0,-2.87305 0.5039,0 0,-0.50391 7.22852,0 0,-5.5664 3.8789,0 0,5.5664 11.63868,0 0,-5.5664 3.90429,0 0,5.5664 3.88086,0 0,-2.64453 5.11328,0 0,2.64453 0,3.37696 5.24024,0 0,-6.02149 5.16406,0 0,6.02149 5.16406,0 0,-6.02149 5.18946,0 0,6.02149 5.16406,0 0,-6.02149 0,-3.375 -5.16406,0 0,-2.64453 0,-3.37695 -5.18946,0 0,3.37695 0,2.64453 -5.16406,0 0,-2.64453 0,-3.37695 -5.16406,0 0,3.37695 0,2.64453 -5.24024,0 0,-2.64453 0,-3.37695 -5.11328,0 0,-6.04493 5.11328,0 0,-6.02148 -5.11328,0 0,-6.01953 5.11328,0 0,-6.02149 -5.11328,0 0,-6.04492 5.11328,0 0,-6.02148 -5.11328,0 0,-2.8711 0.50391,0 0,-3.15039 4.60937,0 0,2.64649 0,3.375 5.24024,0 0,-6.02149 5.16406,0 0,6.02149 5.16406,0 0,-6.02149 5.18946,0 0,6.02149 5.16406,0 0,-6.02149 0,-3.375 -5.16406,0 0,-2.64453 0,-3.375 -5.18946,0 0,3.375 0,2.64453 -5.16406,0 0,-2.64453 0,-3.375 -5.16406,0 0,3.375 0,2.64453 -5.24024,0 0,-2.64453 0,-3.375 -4.60937,0 0,-6.04687 4.60937,0 0,-6.01953 -4.60937,0 0,-6.02149 4.60937,0 0,-6.02148 -4.60937,0 0,-6.044924 4.60937,0 0,-6.021485 -4.60937,0 0,-6.019531 4.60937,0 0,-6.021484 -4.60937,0 0,-0.529297 -31.03516,0 0,-51.589844 -31.03711,0 -31.03515,0 -32.06836,0 0,0.503906 -11.13281,0 0,5.566407 -3.88086,0 0,-5.566407 -11.66211,0 0,5.566407 -3.32618,0 0,-6.070313 -31.03515,0 -32.06836,0 0,52.09375 -11.13477,0 0,5.568359 -3.8789,0 0,-5.568359 -11.66406,0 0,5.568359 -3.82813,0 0,-57.158203 -11.66406,0 0,5.566407 -3.87891,0 0,-5.566407 -11.66406,0 0,5.566407 -3.32422,0 0,-6.070313 -31.03516,0 -31.03515,0 -32.06836,0 0,30.65625 -31.03516,0 0,20.933594 -30.0039,0 0,-20.933594 -31.03516,0 0,-30.65625 -31.03516,0 -31.03515,0 -32.06836,0 0,52.09375 -11.13477,0 0,5.568359 -3.8789,0 0,-5.568359 -11.66407,0 0,5.568359 -3.82812,0 0,-57.158203 -11.66406,0 0,5.566407 -3.87891,0 0,-5.566407 -11.664063,0 0,5.566407 -3.324219,0 0,-6.070313 -31.035156,0 -1.033203,0 -31.035157,0 z m 688.419918,58.140625 0,6.019531 5.24024,0 0,-6.019531 -5.24024,0 z m 5.24024,0 5.16406,0 0,-6.021484 -5.16406,0 0,6.021484 z m 5.16406,0 0,6.019531 5.16406,0 0,-6.019531 -5.16406,0 z m 5.16406,0 5.18946,0 0,-6.021484 -5.18946,0 0,6.021484 z m 5.18946,0 0,6.019531 5.16406,0 0,-6.019531 -5.16406,0 z m 0,6.019531 -5.18946,0 0,6.021485 5.18946,0 0,-6.021485 z m 0,6.021485 0,6.044924 5.16406,0 0,-6.044924 -5.16406,0 z m 0,6.044924 -5.18946,0 0,6.02148 5.18946,0 0,-6.02148 z m 0,6.02148 0,6.02149 5.16406,0 0,-6.02149 -5.16406,0 z m 0,6.02149 -5.18946,0 0,6.01953 5.18946,0 0,-6.01953 z m 0,6.01953 0,6.04687 5.16406,0 0,-6.04687 -5.16406,0 z m -5.18946,0 -5.16406,0 0,6.04687 5.16406,0 0,-6.04687 z m -5.16406,0 0,-6.01953 -5.16406,0 0,6.01953 5.16406,0 z m -5.16406,0 -5.24024,0 0,6.04687 5.24024,0 0,-6.04687 z m 0,-6.01953 0,-6.02149 -5.24024,0 0,6.02149 5.24024,0 z m 0,-6.02149 5.16406,0 0,-6.02148 -5.16406,0 0,6.02148 z m 0,-6.02148 0,-6.044924 -5.24024,0 0,6.044924 5.24024,0 z m 0,-6.044924 5.16406,0 0,-6.021485 -5.16406,0 0,6.021485 z m 5.16406,0 0,6.044924 5.16406,0 0,-6.044924 -5.16406,0 z m 0,12.066404 0,6.02149 5.16406,0 0,-6.02149 -5.16406,0 z m 10.35352,33.50391 -5.18946,0 0,6.02148 5.18946,0 0,-6.02148 z m 0,6.02148 0,6.04492 5.16406,0 0,-6.04492 -5.16406,0 z m 0,6.04492 -5.18946,0 0,6.02149 5.18946,0 0,-6.02149 z m 0,6.02149 0,6.01953 5.16406,0 0,-6.01953 -5.16406,0 z m 0,6.01953 -5.18946,0 0,6.02148 5.18946,0 0,-6.02148 z m 0,6.02148 0,6.04493 5.16406,0 0,-6.04493 -5.16406,0 z m -5.18946,0 -5.16406,0 0,6.04493 5.16406,0 0,-6.04493 z m -5.16406,0 0,-6.02148 -5.16406,0 0,6.02148 5.16406,0 z m -5.16406,0 -5.24024,0 0,6.04493 5.24024,0 0,-6.04493 z m 0,-6.02148 0,-6.01953 -5.24024,0 0,6.01953 5.24024,0 z m 0,-6.01953 5.16406,0 0,-6.02149 -5.16406,0 0,6.02149 z m 0,-6.02149 0,-6.04492 -5.24024,0 0,6.04492 5.24024,0 z m 0,-6.04492 5.16406,0 0,-6.02148 -5.16406,0 0,6.02148 z m 5.16406,0 0,6.04492 5.16406,0 0,-6.04492 -5.16406,0 z m 0,12.06641 0,6.01953 5.16406,0 0,-6.01953 -5.16406,0 z m 10.35352,33.50391 -5.18946,0 0,6.01953 5.18946,0 0,-6.01953 z m 0,6.01953 0,6.04687 5.16406,0 0,-6.04687 -5.16406,0 z m 0,6.04687 -5.18946,0 0,6.01953 5.18946,0 0,-6.01953 z m 0,6.01953 0,6.02149 5.16406,0 0,-6.02149 -5.16406,0 z m 0,6.02149 -5.18946,0 0,6.02148 5.18946,0 0,-6.02148 z m 0,6.02148 0,6.04492 5.16406,0 0,-6.04492 -5.16406,0 z m 0,6.04492 -5.18946,0 0,6.02149 5.18946,0 0,-6.02149 z m 0,6.02149 0,5.13867 -2.59571,0 0,5.56641 3.9043,0 0,-4.68555 3.85547,0 0,-6.01953 -5.16406,0 z m -5.18946,0 -1.28515,0 0,-2.67188 -3.87891,0 0,-3.34961 -5.16406,0 0,6.02149 5.16406,0 0,2.89648 0,3.12305 5.16406,0 0,-6.01953 z m -10.32812,0 -5.24024,0 0,6.01953 2.64454,0 0,4.68555 3.8789,0 0,-5.56641 -1.2832,0 0,-5.13867 z m -5.24024,0 0,-6.02149 -5.13867,0 0,6.02149 0,2.89648 3.87891,0 0,-2.89648 1.25976,0 z m 0,-6.02149 5.24024,0 0,-6.04492 -5.24024,0 0,6.04492 z m 0,-6.04492 0,-6.02148 -5.13867,0 0,6.02148 5.13867,0 z m 0,-6.02148 5.24024,0 0,-6.02149 -5.24024,0 0,6.02149 z m 0,-6.02149 0,-6.01953 -5.13867,0 0,6.01953 5.13867,0 z m 0,-6.01953 5.24024,0 0,-6.04687 -5.24024,0 0,6.04687 z m 0,-6.04687 0,-6.01953 -5.13867,0 0,6.01953 5.13867,0 z m 5.24024,0 5.16406,0 0,-6.01953 -5.16406,0 0,6.01953 z m 5.16406,0 0,6.04687 5.16406,0 0,-6.04687 -5.16406,0 z m 0,6.04687 -5.16406,0 0,6.01953 5.16406,0 0,-6.01953 z m 0,6.01953 0,6.02149 5.16406,0 0,-6.02149 -5.16406,0 z m 0,6.02149 -5.16406,0 0,6.02148 5.16406,0 0,-6.02148 z m 0,6.02148 0,6.04492 5.16406,0 0,-6.04492 -5.16406,0 z m -51.71875,-30.1289 -5.1875,0 0,6.01953 5.1875,0 0,-6.01953 z m 0,6.01953 0,6.04687 5.16602,0 0,-6.04687 -5.16602,0 z m 0,6.04687 -5.1875,0 0,6.01953 5.1875,0 0,-6.01953 z m 0,6.01953 0,6.02149 5.16602,0 0,-6.02149 -5.16602,0 z m 0,6.02149 -5.1875,0 0,6.02148 5.1875,0 0,-6.02148 z m 0,6.02148 0,6.04492 5.16602,0 0,-6.04492 -5.16602,0 z m 0,6.04492 -5.1875,0 0,6.02149 5.1875,0 0,-6.02149 z m 0,6.02149 0,6.01953 5.16602,0 0,-6.01953 -5.16602,0 z m -5.1875,0 -5.16601,0 0,6.01953 5.16601,0 0,-6.01953 z m -5.16601,0 0,-6.02149 -5.16407,0 0,6.02149 5.16407,0 z m -5.16407,0 -5.23828,0 0,6.01953 5.23828,0 0,-6.01953 z m 0,-6.02149 0,-6.04492 -5.23828,0 0,6.04492 5.23828,0 z m 0,-6.04492 5.16407,0 0,-6.02148 -5.16407,0 0,6.02148 z m 0,-6.02148 0,-6.02149 -5.23828,0 0,6.02149 5.23828,0 z m 0,-6.02149 5.16407,0 0,-6.01953 -5.16407,0 0,6.01953 z m 0,-6.01953 0,-6.04687 -5.23828,0 0,6.04687 5.23828,0 z m 0,-6.04687 5.16407,0 0,-6.01953 -5.16407,0 0,6.01953 z m 5.16407,0 0,6.04687 5.16601,0 0,-6.04687 -5.16601,0 z m 0,12.0664 0,6.02149 5.16601,0 0,-6.02149 -5.16601,0 z m 0,12.04297 0,6.04492 5.16601,0 0,-6.04492 -5.16601,0 z m -82.75196,21.46094 -5.18945,0 0,6.02148 5.18945,0 0,-6.02148 z m 0,6.02148 0,6.04688 5.16407,0 0,-6.04688 -5.16407,0 z m 0,6.04688 -5.18945,0 0,6.01953 5.18945,0 0,-6.01953 z m 0,6.01953 0,6.02148 5.16407,0 0,-6.02148 -5.16407,0 z m 0,6.02148 -5.18945,0 0,6.01953 5.18945,0 0,-6.01953 z m 0,6.01953 0,6.04688 5.16407,0 0,-6.04688 -5.16407,0 z m 0,6.04688 -5.18945,0 0,6.01953 5.18945,0 0,-6.01953 z m 0,6.01953 0,5.13867 -2.59375,0 0,5.56836 3.9043,0 0,-4.68554 3.85352,0 0,-6.02149 -5.16407,0 z m -5.18945,0 -1.28516,0 0,-2.66992 -3.8789,0 0,-3.34961 -5.16407,0 0,6.01953 5.16407,0 0,2.89844 0,3.12305 5.16406,0 0,-6.02149 z m -10.32813,0 -5.24023,0 0,6.02149 2.64648,0 0,4.68554 3.87891,0 0,-5.56836 -1.28516,0 0,-5.13867 z m 0,-6.01953 0,-6.04688 -5.24023,0 0,6.04688 5.24023,0 z m 0,-6.04688 5.16407,0 0,-6.01953 -5.16407,0 0,6.01953 z m 0,-6.01953 0,-6.02148 -5.24023,0 0,6.02148 5.24023,0 z m 0,-6.02148 5.16407,0 0,-6.01953 -5.16407,0 0,6.01953 z m 0,-6.01953 0,-6.04688 -5.24023,0 0,6.04688 5.24023,0 z m 0,-6.04688 5.16407,0 0,-6.02148 -5.16407,0 0,6.02148 z m 5.16407,0 0,6.04688 5.16406,0 0,-6.04688 -5.16406,0 z m 0,12.06641 0,6.02148 5.16406,0 0,-6.02148 -5.16406,0 z m 0,12.04101 0,6.04688 5.16406,0 0,-6.04688 -5.16406,0 z m -20.68164,21.4629 -5.18946,0 0,6.02148 5.18946,0 0,-6.02148 z m 0,6.02148 0,6.04492 5.16406,0 0,-2.92187 3.85547,0 0,-5.56641 -3.88086,0 0,2.44336 -5.13867,0 z m 0,6.04492 -5.18946,0 0,6.02149 5.18946,0 0,-6.02149 z m 0,6.02149 0,6.01953 5.13867,0 0,0.68164 3.88086,0 0,-5.59375 -3.85547,0 0,-1.10742 -5.16406,0 z m 0,6.01953 -5.18946,0 0,6.02148 5.18946,0 0,-6.02148 z m 0,6.02148 0,6.04492 5.13867,0 0,4.23243 0,1.78906 -5.13867,0 0,6.02148 5.16406,0 0,-3.125 3.85547,0 0,-5.5664 0,-4.68555 -3.85547,0 0,-4.71094 -5.16406,0 z m 0,12.06641 0,-6.02149 -5.18946,0 0,6.02149 5.18946,0 z m -5.18946,0 -5.16406,0 0,6.02148 5.16406,0 0,-6.02148 z m -5.16406,0 0,-6.02149 -5.16406,0 0,6.02149 5.16406,0 z m -5.16406,0 -5.24024,0 0,6.02148 5.24024,0 0,-6.02148 z m 0,-6.02149 0,-6.04492 -5.24024,0 0,6.04492 5.24024,0 z m 0,-6.04492 5.16406,0 0,-6.02148 -5.16406,0 0,6.02148 z m 0,-6.02148 0,-6.01953 -5.24024,0 0,6.01953 5.24024,0 z m 0,-6.01953 5.16406,0 0,-6.02149 -5.16406,0 0,6.02149 z m 0,-6.02149 0,-6.04492 -5.24024,0 0,6.04492 5.24024,0 z m 0,-6.04492 5.16406,0 0,-6.02148 -5.16406,0 0,6.02148 z m 5.16406,0 0,6.04492 5.16406,0 0,-6.04492 -5.16406,0 z m 0,12.06641 0,6.01953 5.16406,0 0,-6.01953 -5.16406,0 z m 0,12.04101 0,6.04492 5.16406,0 0,-6.04492 -5.16406,0 z m -20.68164,21.46289 -5.18945,0 0,6.01953 5.18945,0 0,-6.01953 z m 0,6.01953 0,6.04688 5.16406,0 0,-6.04688 -5.16406,0 z m 0,6.04688 -5.18945,0 0,6.02148 5.18945,0 0,-6.02148 z m 0,6.02148 0,6.01953 5.16406,0 0,-6.01953 -5.16406,0 z m 0,6.01953 -5.18945,0 0,6.02149 5.18945,0 0,-6.02149 z m 0,6.02149 0,6.04492 5.16406,0 0,-6.04492 -5.16406,0 z m 0,6.04492 -5.18945,0 0,6.02148 5.18945,0 0,-6.02148 z m 0,6.02148 0,5.13868 -2.59375,0 0,5.5664 3.9043,0 0,-4.68554 3.85351,0 0,-6.01954 -5.16406,0 z m -5.18945,0 -1.28516,0 0,-2.66992 -3.87891,0 0,-3.35156 -5.16406,0 0,6.02148 5.16406,0 0,2.89649 0,3.12305 5.16407,0 0,-6.01954 z m -10.32813,0 -5.24023,0 0,6.01954 2.64648,0 0,4.68554 3.87891,0 0,-5.5664 -1.28516,0 0,-5.13868 z m -5.24023,0 0,-6.02148 -5.13867,0 0,6.02148 0,2.89649 3.8789,0 0,-2.89649 1.25977,0 z m 0,-6.02148 5.24023,0 0,-6.04492 -5.24023,0 0,6.04492 z m 0,-6.04492 0,-6.02149 -5.13867,0 0,6.02149 5.13867,0 z m 0,-6.02149 5.24023,0 0,-6.01953 -5.24023,0 0,6.01953 z m 0,-6.01953 0,-6.02148 -5.13867,0 0,6.02148 5.13867,0 z m 0,-6.02148 5.24023,0 0,-6.04688 -5.24023,0 0,6.04688 z m 0,-6.04688 0,-6.01953 -5.13867,0 0,6.01953 5.13867,0 z m 5.24023,0 5.16406,0 0,-6.01953 -5.16406,0 0,6.01953 z m 5.16406,0 0,6.04688 5.16407,0 0,-6.04688 -5.16407,0 z m 0,6.04688 -5.16406,0 0,6.02148 5.16406,0 0,-6.02148 z m 0,6.02148 0,6.01953 5.16407,0 0,-6.01953 -5.16407,0 z m 0,6.01953 -5.16406,0 0,6.02149 5.16406,0 0,-6.02149 z m 0,6.02149 0,6.04492 5.16407,0 0,-6.04492 -5.16407,0 z m -20.68164,-39.52539 0,-6.02149 -5.18945,0 0,6.02149 5.18945,0 z m -5.18945,0 -1.28516,0 0,-2.66992 -3.8789,0 0,-3.35157 -5.16406,0 0,6.02149 5.16406,0 0,2.89648 0,3.125 5.16406,0 0,-6.02148 z m -10.32812,0 -5.24024,0 0,6.02148 2.64453,0 0,4.68555 3.88086,0 0,-5.56836 -1.28515,0 0,-5.13867 z m -5.24024,0 0,-6.02149 -5.13867,0 0,6.02149 0,2.89648 3.87891,0 0,-2.89648 1.25976,0 z m 0,-6.02149 5.24024,0 0,-6.04492 -5.24024,0 0,6.04492 z m 0,-6.04492 0,-6.02148 -5.13867,0 0,6.02148 5.13867,0 z m 0,-6.02148 5.24024,0 0,-6.01953 -5.24024,0 0,6.01953 z m 0,-6.01953 0,-6.02149 -5.13867,0 0,6.02149 5.13867,0 z m 0,-6.02149 5.24024,0 0,-6.04492 -5.24024,0 0,6.04492 z m 0,-6.04492 0,-6.02148 -5.13867,0 0,6.02148 5.13867,0 z m 5.24024,0 5.16406,0 0,-6.02148 -5.16406,0 0,6.02148 z m 5.16406,0 0,6.04492 5.16406,0 0,-6.04492 -5.16406,0 z m 5.16406,0 5.18945,0 0,-6.02148 -5.18945,0 0,6.02148 z m 0,6.04492 0,6.02149 5.18945,0 0,-6.02149 -5.18945,0 z m 0,6.02149 -5.16406,0 0,6.01953 5.16406,0 0,-6.01953 z m 0,6.01953 0,6.02148 5.18945,0 0,-6.02148 -5.18945,0 z m 0,6.02148 -5.16406,0 0,6.04492 5.16406,0 0,-6.04492 z m -5.16406,0 0,-6.02148 -5.16406,0 0,6.02148 5.16406,0 z m 0,-12.04101 0,-6.02149 -5.16406,0 0,6.02149 5.16406,0 z m -20.68164,-27.48438 0,-6.01953 -5.18946,0 0,6.01953 5.18946,0 z m -5.18946,0 -1.28515,0 0,-2.66992 -3.87891,0 0,-3.34961 -5.16406,0 0,6.01953 5.16406,0 0,2.89844 0,3.12305 5.16406,0 0,-6.02149 z m -10.32812,0 -5.24023,0 0,6.02149 2.64453,0 0,4.68554 3.88086,0 0,-5.56836 -1.28516,0 0,-5.13867 z m 0,-6.01953 0,-6.04688 -5.24023,0 0,6.04688 5.24023,0 z m 0,-6.04688 5.16406,0 0,-6.01953 -5.16406,0 0,6.01953 z m 0,-6.01953 0,-6.02148 -5.24023,0 0,6.02148 5.24023,0 z m 0,-6.02148 5.16406,0 0,-6.01953 -5.16406,0 0,6.01953 z m 0,-6.01953 0,-6.04688 -5.24023,0 0,6.04688 5.24023,0 z m 0,-6.04688 5.16406,0 0,-6.02148 -5.16406,0 0,6.02148 z m 0,-6.02148 0,-6.01953 -5.24023,0 0,6.01953 5.24023,0 z m 0,-6.01953 5.16406,0 0,-6.02149 -5.16406,0 0,6.02149 z m 5.16406,0 0,6.01953 5.16406,0 0,-6.01953 -5.16406,0 z m 5.16406,0 5.18946,0 0,-6.02149 -5.18946,0 0,6.02149 z m 0,6.01953 0,6.02148 5.18946,0 0,-6.02148 -5.18946,0 z m 0,6.02148 -5.16406,0 0,6.04688 5.16406,0 0,-6.04688 z m 0,6.04688 0,6.01953 5.18946,0 0,-6.01953 -5.18946,0 z m 0,6.01953 -5.16406,0 0,6.02148 5.16406,0 0,-6.02148 z m 0,6.02148 0,6.01953 5.18946,0 0,-6.01953 -5.18946,0 z m 0,6.01953 -5.16406,0 0,6.04688 5.16406,0 0,-6.04688 z m 15.4668,-45.54492 5.24024,0 0,-6.04492 -5.24024,0 0,6.04492 z m 0,-6.04492 0,-6.02148 -5.13867,0 0,6.02148 5.13867,0 z m 0,-6.02148 5.24024,0 0,-6.02149 -5.24024,0 0,6.02149 z m 0,-6.02149 0,-6.01953 -5.13867,0 0,6.01953 5.13867,0 z m 0,-6.01953 5.24024,0 0,-6.04687 -5.24024,0 0,6.04687 z m 0,-6.04687 0,-6.01953 -5.13867,0 0,6.01953 5.13867,0 z m 5.24024,0 5.16406,0 0,-6.01953 -5.16406,0 0,6.01953 z m 5.16406,0 0,6.04687 5.16406,0 0,-6.04687 -5.16406,0 z m 5.16406,0 5.18945,0 0,-6.01953 -5.18945,0 0,6.01953 z m 0,6.04687 0,6.01953 5.18945,0 0,-6.01953 -5.18945,0 z m 0,6.01953 -5.16406,0 0,6.02149 5.16406,0 0,-6.02149 z m 0,6.02149 0,6.02148 5.18945,0 0,-6.02148 -5.18945,0 z m 0,6.02148 -5.16406,0 0,6.04492 5.16406,0 0,-6.04492 z m -5.16406,0 0,-6.02148 -5.16406,0 0,6.02148 5.16406,0 z m 0,-12.04297 0,-6.01953 -5.16406,0 0,6.01953 5.16406,0 z m -20.68164,-79.07422 0,-6.01953 -5.18946,0 0,6.01953 5.18946,0 z m -5.18946,0 -1.28515,0 0,-2.66992 -3.87891,0 0,-3.34961 -5.16406,0 0,6.01953 5.16406,0 0,2.89649 0,3.125 5.16406,0 0,-6.02149 z m -10.32812,0 -5.24023,0 0,6.02149 2.64453,0 0,4.68554 3.88086,0 0,-5.56835 -1.28516,0 0,-5.13868 z m 0,-6.01953 0,-6.04687 -5.24023,0 0,6.04687 5.24023,0 z m 0,-6.04687 5.16406,0 0,-6.01953 -5.16406,0 0,6.01953 z m 0,-6.01953 0,-6.02149 -5.24023,0 0,6.02149 5.24023,0 z m 0,-6.02149 5.16406,0 0,-6.02148 -5.16406,0 0,6.02148 z m 0,-6.02148 0,-6.044924 -5.24023,0 0,6.044924 5.24023,0 z m 0,-6.044924 5.16406,0 0,-6.021485 -5.16406,0 0,6.021485 z m 5.16406,0 0,6.044924 5.16406,0 0,-6.044924 -5.16406,0 z m 5.16406,0 5.18946,0 0,-6.021485 -5.18946,0 0,6.021485 z m 0,6.044924 0,6.02148 5.18946,0 0,-6.02148 -5.18946,0 z m 0,6.02148 -5.16406,0 0,6.02149 5.16406,0 0,-6.02149 z m 0,6.02149 0,6.01953 5.18946,0 0,-6.01953 -5.18946,0 z m 0,6.01953 -5.16406,0 0,6.04687 5.16406,0 0,-6.04687 z m -87.91601,115.25 0,-6.02149 -5.18945,0 0,6.02149 5.18945,0 z m -5.18945,0 -1.28516,0 0,-2.67188 -3.87891,0 0,-3.34961 -5.16601,0 0,6.02149 5.16601,0 0,2.89648 0,3.12305 5.16407,0 0,-6.01953 z m -10.33008,0 -5.23828,0 0,6.01953 2.64453,0 0,4.68555 3.8789,0 0,-5.56641 -1.28515,0 0,-5.13867 z m -5.23828,0 0,-6.02149 -5.13868,0 0,6.02149 0,2.89648 3.87891,0 0,-2.89648 1.25977,0 z m 0,-6.02149 5.23828,0 0,-6.04492 -5.23828,0 0,6.04492 z m 0,-6.04492 0,-6.02148 -5.13868,0 0,6.02148 5.13868,0 z m 0,-6.02148 5.23828,0 0,-6.02149 -5.23828,0 0,6.02149 z m 0,-6.02149 0,-6.01953 -5.13868,0 0,6.01953 5.13868,0 z m 0,-6.01953 5.23828,0 0,-6.04687 -5.23828,0 0,6.04687 z m 0,-6.04687 0,-6.01953 -5.13868,0 0,6.01953 5.13868,0 z m 5.23828,0 5.16601,0 0,-6.01953 -5.16601,0 0,6.01953 z m 5.16601,0 0,6.04687 5.16407,0 0,-6.04687 -5.16407,0 z m 5.16407,0 5.18945,0 0,-6.01953 -5.18945,0 0,6.01953 z m 0,6.04687 0,6.01953 5.18945,0 0,-6.01953 -5.18945,0 z m 0,6.01953 -5.16407,0 0,6.02149 5.16407,0 0,-6.02149 z m 0,6.02149 0,6.02148 5.18945,0 0,-6.02148 -5.18945,0 z m 0,6.02148 -5.16407,0 0,6.04492 5.16407,0 0,-6.04492 z m -5.16407,0 0,-6.02148 -5.16601,0 0,6.02148 5.16601,0 z m 0,-12.04297 0,-6.01953 -5.16601,0 0,6.01953 5.16601,0 z m -113.78906,-97.16015 -5.18945,0 0,6.01953 5.18945,0 0,-6.01953 z m 0,6.01953 0,6.04687 5.16406,0 0,-6.04687 -5.16406,0 z m 0,6.04687 -5.18945,0 0,6.01953 5.18945,0 0,-6.01953 z m 0,6.01953 0,6.02149 5.16406,0 0,-6.02149 -5.16406,0 z m -5.18945,0 -5.16407,0 0,6.02149 5.16407,0 0,-6.02149 z m -5.16407,0 0,-6.01953 -5.16406,0 0,6.01953 5.16406,0 z m -5.16406,0 -5.24023,0 0,6.02149 5.24023,0 0,-6.02149 z m 0,-6.01953 0,-6.04687 -5.24023,0 0,6.04687 5.24023,0 z m 0,-6.04687 5.16406,0 0,-6.01953 -5.16406,0 0,6.01953 z m 0,-6.01953 0,-6.02149 -5.24023,0 0,6.02149 5.24023,0 z m 0,-6.02149 5.16406,0 0,-6.02148 -5.16406,0 0,6.02148 z m 0,-6.02148 0,-6.044924 -5.24023,0 0,6.044924 5.24023,0 z m 0,-6.044924 5.16406,0 0,-6.021485 -5.16406,0 0,6.021485 z m 5.16406,0 0,6.044924 5.16407,0 0,-6.044924 -5.16407,0 z m 5.16407,0 5.18945,0 0,-6.021485 -5.18945,0 0,6.021485 z m 0,6.044924 0,6.02148 5.18945,0 0,-6.02148 -5.18945,0 z m 0,6.02148 -5.16407,0 0,6.02149 5.16407,0 0,-6.02149 z m -5.16407,12.04102 0,6.04687 5.16407,0 0,-6.04687 -5.16407,0 z m -10.40429,118.625 0,6.01953 5.24023,0 0,-6.01953 -5.24023,0 z m 5.24023,0 5.16406,0 0,-6.02149 -5.16406,0 0,6.02149 z m 5.16406,0 0,6.01953 5.16407,0 0,-6.01953 -5.16407,0 z m 5.16407,0 5.18945,0 0,-6.02149 -5.18945,0 0,6.02149 z m 5.18945,0 0,6.01953 5.16406,0 0,-6.01953 -5.16406,0 z m 0,6.01953 -5.18945,0 0,6.02148 5.18945,0 0,-6.02148 z m 0,6.02148 0,6.04688 5.16406,0 0,-6.04688 -5.16406,0 z m 0,6.04688 -5.18945,0 0,6.01953 5.18945,0 0,-6.01953 z m 0,6.01953 0,6.02148 5.16406,0 0,-6.02148 -5.16406,0 z m 0,6.02148 -5.18945,0 0,6.01953 5.18945,0 0,-6.01953 z m 0,6.01953 0,6.04688 5.16406,0 0,-6.04688 -5.16406,0 z m 0,6.04688 -5.18945,0 0,6.01953 5.18945,0 0,-6.01953 z m 0,6.01953 0,5.13867 -2.59375,0 0,5.56836 3.9043,0 0,-4.68554 3.85351,0 0,-6.02149 -5.16406,0 z m -5.18945,0 -1.28516,0 0,-2.66992 -3.87891,0 0,-3.34961 -5.16406,0 0,6.01953 5.16406,0 0,2.89844 0,3.12305 5.16407,0 0,-6.02149 z m -10.32813,0 -5.24023,0 0,6.02149 2.64648,0 0,4.68554 3.87891,0 0,-5.56836 -1.28516,0 0,-5.13867 z m 0,-6.01953 0,-6.04688 -5.24023,0 0,6.04688 5.24023,0 z m 0,-6.04688 5.16406,0 0,-6.01953 -5.16406,0 0,6.01953 z m 0,-6.01953 0,-6.02148 -5.24023,0 0,6.02148 5.24023,0 z m 0,-6.02148 5.16406,0 0,-6.01953 -5.16406,0 0,6.01953 z m 0,-6.01953 0,-6.04688 -5.24023,0 0,6.04688 5.24023,0 z m 0,-6.04688 5.16406,0 0,-6.02148 -5.16406,0 0,6.02148 z m 5.16406,0 0,6.04688 5.16407,0 0,-6.04688 -5.16407,0 z m 0,12.06641 0,6.02148 5.16407,0 0,-6.02148 -5.16407,0 z m 0,12.04101 0,6.04688 5.16407,0 0,-6.04688 -5.16407,0 z m -20.68164,21.4629 -5.18945,0 0,6.02148 5.18945,0 0,-6.02148 z m 0,6.02148 0,6.04492 5.16407,0 0,-2.92187 3.85351,0 0,-5.56641 -3.8789,0 0,2.44336 -5.13868,0 z m 0,6.04492 -5.18945,0 0,6.02149 5.18945,0 0,-6.02149 z m 0,6.02149 0,6.01953 5.13868,0 0,0.68164 3.8789,0 0,-5.59375 -3.85351,0 0,-1.10742 -5.16407,0 z m 0,6.01953 -5.18945,0 0,6.02148 5.18945,0 0,-6.02148 z m 0,6.02148 0,6.04492 5.13868,0 0,4.23243 0,1.78906 -5.13868,0 0,6.02148 5.16407,0 0,-3.125 3.85351,0 0,-5.5664 0,-4.68555 -3.85351,0 0,-4.71094 -5.16407,0 z m 0,12.06641 0,-6.02149 -5.18945,0 0,6.02149 5.18945,0 z m -5.18945,0 -5.16406,0 0,6.02148 5.16406,0 0,-6.02148 z m -5.16406,0 0,-6.02149 -5.16406,0 0,6.02149 5.16406,0 z m -5.16406,0 -5.24024,0 0,6.02148 5.24024,0 0,-6.02148 z m -5.24024,0 0,-6.02149 -5.13867,0 0,6.02149 5.13867,0 z m 0,-6.02149 5.24024,0 0,-6.04492 -5.24024,0 0,6.04492 z m 0,-6.04492 0,-6.02148 -5.13867,0 0,6.02148 5.13867,0 z m 0,-6.02148 5.24024,0 0,-6.01953 -5.24024,0 0,6.01953 z m 0,-6.01953 0,-6.02149 -5.13867,0 0,6.02149 5.13867,0 z m 0,-6.02149 5.24024,0 0,-6.04492 -5.24024,0 0,6.04492 z m 0,-6.04492 0,-6.02148 -5.13867,0 0,6.02148 5.13867,0 z m 5.24024,0 5.16406,0 0,-6.02148 -5.16406,0 0,6.02148 z m 5.16406,0 0,6.04492 5.16406,0 0,-6.04492 -5.16406,0 z m 0,6.04492 -5.16406,0 0,6.02149 5.16406,0 0,-6.02149 z m 0,6.02149 0,6.01953 5.16406,0 0,-6.01953 -5.16406,0 z m 0,6.01953 -5.16406,0 0,6.02148 5.16406,0 0,-6.02148 z m 0,6.02148 0,6.04492 5.16406,0 0,-6.04492 -5.16406,0 z m -51.7168,-39.52539 0,-6.01953 -5.18945,0 0,6.01953 5.18945,0 z m -5.18945,0 -1.28516,0 0,-2.66992 -3.8789,0 0,-3.34961 -5.16407,0 0,6.01953 5.16407,0 0,2.89844 0,3.12305 5.16406,0 0,-6.02149 z m -10.32813,0 -5.24023,0 0,6.02149 2.64453,0 0,4.68554 3.88086,0 0,-5.56836 -1.28516,0 0,-5.13867 z m -5.24023,0 0,-6.01953 -5.13867,0 0,6.01953 0,2.89844 3.8789,0 0,-2.89844 1.25977,0 z m 0,-6.01953 5.24023,0 0,-6.04688 -5.24023,0 0,6.04688 z m 0,-6.04688 0,-6.01953 -5.13867,0 0,6.01953 5.13867,0 z m 0,-6.01953 5.24023,0 0,-6.02148 -5.24023,0 0,6.02148 z m 0,-6.02148 0,-6.01953 -5.13867,0 0,6.01953 5.13867,0 z m 0,-6.01953 5.24023,0 0,-6.04688 -5.24023,0 0,6.04688 z m 0,-6.04688 0,-6.02148 -5.13867,0 0,6.02148 5.13867,0 z m 5.24023,0 5.16407,0 0,-6.02148 -5.16407,0 0,6.02148 z m 5.16407,0 0,6.04688 5.16406,0 0,-6.04688 -5.16406,0 z m 5.16406,0 5.18945,0 0,-6.02148 -5.18945,0 0,6.02148 z m 0,6.04688 0,6.01953 5.18945,0 0,-6.01953 -5.18945,0 z m 0,6.01953 -5.16406,0 0,6.02148 5.16406,0 0,-6.02148 z m 0,6.02148 0,6.01953 5.18945,0 0,-6.01953 -5.18945,0 z m 0,6.01953 -5.16406,0 0,6.04688 5.16406,0 0,-6.04688 z m -5.16406,0 0,-6.01953 -5.16407,0 0,6.01953 5.16407,0 z m 0,-12.04101 0,-6.01953 -5.16407,0 0,6.01953 5.16407,0 z m -10.4043,-33.50391 5.24023,0 0,-6.04492 -5.24023,0 0,6.04492 z m 0,-6.04492 0,-6.02148 -5.13867,0 0,6.02148 5.13867,0 z m 0,-6.02148 5.24023,0 0,-6.02149 -5.24023,0 0,6.02149 z m 0,-6.02149 0,-6.01953 -5.13867,0 0,6.01953 5.13867,0 z m 0,-6.01953 5.24023,0 0,-6.04687 -5.24023,0 0,6.04687 z m 0,-6.04687 0,-6.01953 -5.13867,0 0,6.01953 5.13867,0 z m 5.24023,0 5.16407,0 0,-6.01953 -5.16407,0 0,6.01953 z m 5.16407,0 0,6.04687 5.16406,0 0,-6.04687 -5.16406,0 z m 5.16406,0 5.18945,0 0,-6.01953 -5.18945,0 0,6.01953 z m 0,6.04687 0,6.01953 5.18945,0 0,-6.01953 -5.18945,0 z m 0,6.01953 -5.16406,0 0,6.02149 5.16406,0 0,-6.02149 z m 0,6.02149 0,6.02148 5.18945,0 0,-6.02148 -5.18945,0 z m 0,6.02148 -5.16406,0 0,6.04492 5.16406,0 0,-6.04492 z m -5.16406,0 0,-6.02148 -5.16407,0 0,6.02148 5.16407,0 z m 0,-12.04297 0,-6.01953 -5.16407,0 0,6.01953 5.16407,0 z m -20.68164,-27.48242 0,-6.02148 -5.18946,0 0,6.02148 5.18946,0 z m -5.18946,0 -1.28515,0 0,-2.66992 -3.87891,0 0,-3.35156 -5.16406,0 0,6.02148 5.16406,0 0,2.89649 0,3.12304 5.16406,0 0,-6.01953 z m -10.32812,0 -5.240237,0 0,6.01953 2.644527,0 0,4.68555 3.88086,0 0,-5.56641 -1.28515,0 0,-5.13867 z m 0,-6.02148 0,-6.04493 -5.240237,0 0,6.04493 5.240237,0 z m 0,-6.04493 5.16406,0 0,-6.02148 -5.16406,0 0,6.02148 z m 0,-6.02148 0,-6.01953 -5.240237,0 0,6.01953 5.240237,0 z m 0,-6.01953 5.16406,0 0,-6.02149 -5.16406,0 0,6.02149 z m 0,-6.02149 0,-6.04492 -5.240237,0 0,6.04492 5.240237,0 z m 0,-6.04492 5.16406,0 0,-6.02148 -5.16406,0 0,6.02148 z m 5.16406,0 0,6.04492 5.16406,0 0,-6.04492 -5.16406,0 z m 5.16406,0 5.18946,0 0,-6.02148 -5.18946,0 0,6.02148 z m 0,6.04492 0,6.02149 5.18946,0 0,-6.02149 -5.18946,0 z m 0,6.02149 -5.16406,0 0,6.01953 5.16406,0 0,-6.01953 z m 0,6.01953 0,6.02148 5.18946,0 0,-6.02148 -5.18946,0 z m 0,6.02148 -5.16406,0 0,6.04493 5.16406,0 0,-6.04493 z m -56.880857,176.23633 -5.189453,0 0,6.01953 5.189453,0 0,-6.01953 z m 0,6.01953 0,6.04688 5.164063,0 0,-6.04688 -5.164063,0 z m 0,6.04688 -5.189453,0 0,6.02148 5.189453,0 0,-6.02148 z m 0,6.02148 0,6.01953 5.164063,0 0,-6.01953 -5.164063,0 z m 0,6.01953 -5.189453,0 0,6.02149 5.189453,0 0,-6.02149 z m 0,6.02149 0,6.04492 5.164063,0 0,-6.04492 -5.164063,0 z m 0,6.04492 -5.189453,0 0,3.375 0,2.64648 -5.164062,0 0,-2.64648 0,-3.375 -5.164063,0 0,3.375 0,2.64648 -5.240234,0 0,-2.64648 0,-3.375 -5.138672,0 0,6.02148 0,3.375 5.138672,0 0,2.64454 0,3.37695 5.240234,0 0,-6.02149 5.164063,0 0,6.02149 5.164062,0 0,-6.02149 5.189453,0 0,6.02149 5.164063,0 0,-6.02149 0,-3.375 -5.164063,0 0,-2.64648 0,-3.375 z m 0,15.41797 -5.189453,0 0,6.01953 5.189453,0 0,-6.01953 z m 0,6.01953 0,6.04688 5.164063,0 0,-6.04688 -5.164063,0 z m 0,6.04688 -5.189453,0 0,6.01953 5.189453,0 0,-6.01953 z m 0,6.01953 0,6.02148 5.164063,0 0,-6.02148 -5.164063,0 z m 0,6.02148 -5.189453,0 0,6.01953 5.189453,0 0,-6.01953 z m 0,6.01953 0,6.04688 5.164063,0 0,-6.04688 -5.164063,0 z m 0,6.04688 -5.189453,0 0,6.01953 5.189453,0 0,-6.01953 z m 0,6.01953 0,5.14062 -2.595703,0 0,5.56641 3.904297,0 0,-4.68555 3.855469,0 0,-6.02148 -5.164063,0 z m -5.189453,0 -1.285156,0 0,-2.66992 -3.878906,0 0,-3.34961 -5.164063,0 0,6.01953 5.164063,0 0,2.89844 0,3.12304 5.164062,0 0,-6.02148 z m -10.328125,0 -5.240234,0 0,6.02148 2.644531,0 0,4.68555 3.878906,0 0,-5.56641 -1.283203,0 0,-5.14062 z m -5.240234,0 0,-6.01953 -5.138672,0 0,6.01953 0,2.89844 3.878906,0 0,-2.89844 1.259766,0 z m 0,-6.01953 5.240234,0 0,-6.04688 -5.240234,0 0,6.04688 z m 0,-6.04688 0,-6.01953 -5.138672,0 0,6.01953 5.138672,0 z m 0,-6.01953 5.240234,0 0,-6.02148 -5.240234,0 0,6.02148 z m 0,-6.02148 0,-6.01953 -5.138672,0 0,6.01953 5.138672,0 z m 0,-6.01953 5.240234,0 0,-6.04688 -5.240234,0 0,6.04688 z m 0,-6.04688 0,-6.01953 -5.138672,0 0,6.01953 5.138672,0 z m 5.240234,0 5.164063,0 0,-6.01953 -5.164063,0 0,6.01953 z m 5.164063,0 0,6.04688 5.164062,0 0,-6.04688 -5.164062,0 z m 0,6.04688 -5.164063,0 0,6.01953 5.164063,0 0,-6.01953 z m 0,6.01953 0,6.02148 5.164062,0 0,-6.02148 -5.164062,0 z m 0,6.02148 -5.164063,0 0,6.01953 5.164063,0 0,-6.01953 z m 0,6.01953 0,6.04688 5.164062,0 0,-6.04688 -5.164062,0 z m -10.404297,-45.54492 5.240234,0 0,-6.04492 -5.240234,0 0,6.04492 z m 0,-6.04492 0,-6.02149 -5.138672,0 0,6.02149 5.138672,0 z m 0,-6.02149 5.240234,0 0,-6.01953 -5.240234,0 0,6.01953 z m 0,-6.01953 0,-6.02148 -5.138672,0 0,6.02148 5.138672,0 z m 0,-6.02148 5.240234,0 0,-6.04688 -5.240234,0 0,6.04688 z m 0,-6.04688 0,-6.01953 -5.138672,0 0,6.01953 5.138672,0 z m 5.240234,0 5.164063,0 0,-6.01953 -5.164063,0 0,6.01953 z m 5.164063,0 0,6.04688 5.164062,0 0,-6.04688 -5.164062,0 z m 0,6.04688 -5.164063,0 0,6.02148 5.164063,0 0,-6.02148 z m 0,6.02148 0,6.01953 5.164062,0 0,-6.01953 -5.164062,0 z m 0,6.01953 -5.164063,0 0,6.02149 5.164063,0 0,-6.02149 z m 0,6.02149 0,6.04492 5.164062,0 0,-6.04492 -5.164062,0 z m -20.683594,-194.29883 0,-6.02148 -5.1875,0 0,6.02148 5.1875,0 z m -5.1875,0 -1.285156,0 0,-2.66992 -3.88086,0 0,-3.35156 -5.164062,0 0,6.02148 5.164062,0 0,2.89649 0,3.12304 5.166016,0 0,-6.01953 z m -10.330078,0 -5.2382816,0 0,6.01953 2.6445312,0 0,4.68555 3.8789064,0 0,-5.56641 -1.285156,0 0,-5.13867 z m -5.2382816,0 0,-6.02148 -5.1386719,0 0,6.02148 0,2.89649 3.8789063,0 0,-2.89649 1.2597656,0 z m 0,-6.02148 5.2382816,0 0,-6.04493 -5.2382816,0 0,6.04493 z m 0,-6.04493 0,-6.02148 -5.1386719,0 0,6.02148 5.1386719,0 z m 0,-6.02148 5.2382816,0 0,-6.01953 -5.2382816,0 0,6.01953 z m 0,-6.01953 0,-6.02149 -5.1386719,0 0,6.02149 5.1386719,0 z m 0,-6.02149 5.2382816,0 0,-6.04492 -5.2382816,0 0,6.04492 z m 0,-6.04492 0,-6.02148 -5.1386719,0 0,6.02148 5.1386719,0 z m 5.2382816,0 5.164062,0 0,-6.02148 -5.164062,0 0,6.02148 z m 5.164062,0 0,6.04492 5.166016,0 0,-6.04492 -5.166016,0 z m 5.166016,0 5.1875,0 0,-6.02148 -5.1875,0 0,6.02148 z m 0,6.04492 0,6.02149 5.1875,0 0,-6.02149 -5.1875,0 z m 0,6.02149 -5.166016,0 0,6.01953 5.166016,0 0,-6.01953 z m 0,6.01953 0,6.02148 5.1875,0 0,-6.02148 -5.1875,0 z m 0,6.02148 -5.166016,0 0,6.04493 5.166016,0 0,-6.04493 z m -5.166016,0 0,-6.02148 -5.164062,0 0,6.02148 5.164062,0 z m 0,-12.04101 0,-6.02149 -5.164062,0 0,6.02149 5.164062,0 z m 85.322262,-125.527345 3.88086,0 0,5.566406 -3.88086,0 0,-5.566406 z m 15.51758,0 3.90625,0 0,5.566406 -3.90625,0 0,-5.566406 z m 325.8711,0 3.88086,0 0,5.566406 -3.88086,0 0,-5.566406 z m 15.51757,0 3.90625,0 0,5.566406 -3.90625,0 0,-5.566406 z m 108.625,0 3.87891,0 0,5.566406 -3.87891,0 0,-5.566406 z m 15.51758,0 3.9043,0 0,5.566406 -3.9043,0 0,-5.566406 z m -488.277342,7.833984 3.324219,0 0,5.56836 -3.324219,0 0,-5.56836 z m 14.988282,0 3.87891,0 0,5.56836 -3.87891,0 0,-5.56836 z m 326.40039,0 3.32422,0 0,5.56836 -3.32422,0 0,-5.56836 z m 14.98828,0 3.87891,0 0,5.56836 -3.87891,0 0,-5.56836 z m 109.15234,0 3.32618,0 0,5.56836 -3.32618,0 0,-5.56836 z m 14.98829,0 3.88086,0 0,5.56836 -3.88086,0 0,-5.56836 z m -473.28907,7.785157 3.88086,0 0,5.591796 -3.88086,0 0,-5.591796 z m 15.51758,0 3.90625,0 0,5.591796 -3.90625,0 0,-5.591796 z m 325.8711,0 3.88086,0 0,5.591796 -3.88086,0 0,-5.591796 z m 15.51757,0 3.90625,0 0,5.591796 -3.90625,0 0,-5.591796 z m 108.625,0 3.87891,0 0,5.591796 -3.87891,0 0,-5.591796 z m 15.51758,0 3.9043,0 0,5.591796 -3.9043,0 0,-5.591796 z m -488.277342,7.833984 3.324219,0 0,5.591797 -3.324219,0 0,-5.591797 z m 14.988282,0 3.87891,0 0,5.591797 -3.87891,0 0,-5.591797 z m 326.40039,0 3.32422,0 0,5.591797 -3.32422,0 0,-5.591797 z m 14.98828,0 3.87891,0 0,5.591797 -3.87891,0 0,-5.591797 z m 109.15234,0 3.32618,0 0,5.591797 -3.32618,0 0,-5.591797 z m 14.98829,0 3.88086,0 0,5.591797 -3.88086,0 0,-5.591797 z m -473.28907,7.808594 3.88086,0 0,5.568359 -3.88086,0 0,-5.568359 z m 15.51758,0 3.90625,0 0,5.568359 -3.90625,0 0,-5.568359 z m 325.8711,0 3.88086,0 0,5.568359 -3.88086,0 0,-5.568359 z m 15.51757,0 3.90625,0 0,5.568359 -3.90625,0 0,-5.568359 z m 108.625,0 3.87891,0 0,5.568359 -3.87891,0 0,-5.568359 z m 15.51758,0 3.9043,0 0,5.568359 -3.9043,0 0,-5.568359 z m -488.277342,7.833984 3.324219,0 0,4.710938 -3.324219,0 0,-0.529297 0,-4.181641 z m 14.988282,0 3.87891,0 0,5.56836 -3.85352,0 0,-0.857422 -0.0254,0 0,-4.710938 z m 326.40039,0 3.32422,0 0,4.710938 -3.32422,0 0,-0.529297 0,-4.181641 z m 14.98828,0 3.87891,0 0,5.56836 -3.85352,0 0,-0.857422 -0.0254,0 0,-4.710938 z m 109.15234,0 3.32618,0 0,4.685547 -3.32618,0 0,-0.503906 0,-4.181641 z m 14.98829,0 3.88086,0 0,4.685547 -3.85547,0 0,0.882813 -0.0254,0 0,-5.56836 z m -473.28907,7.810547 2.6211,0 0,2.921875 1.25976,0 0,2.644531 3.9043,0 0,3.375 5.16406,0 0,-3.375 2.56836,0 0,-2.644531 2.6211,0 0,-2.921875 1.28515,0 0,2.921875 -1.28515,0 0,6.019531 5.13867,0 0,3.578125 3.85351,0 0,5.566406 -3.82812,0 0,-3.123046 -5.16406,0 0,6.044924 5.13867,0 0,6.02148 -5.13867,0 0,6.02149 5.16406,0 0,-4.91407 3.82812,0 0,5.59375 -3.85351,0 0,5.33985 -5.13867,0 0,6.04687 5.16406,0 0,-1.33594 3.82812,0 0,5.56641 -3.85351,0 0,1.78906 -5.13867,0 0,-2.64453 0,-3.375 -5.18946,0 0,3.375 0,2.64453 -5.16406,0 0,-2.64453 0,-3.375 -5.16406,0 0,3.375 0,2.64453 -5.240237,0 0,-2.64453 0,-3.375 -4.609375,0 0,-6.04687 4.609375,0 0,-6.01953 -4.609375,0 0,-6.02149 4.609375,0 0,-6.02148 -4.609375,0 0,-6.044924 4.609375,0 0,-6.021485 -4.609375,0 0,-2.871093 0,-0.503907 4.609375,0 0,3.375 5.240237,0 0,-6.019531 -2.6211,0 0,-2.921875 z m 2.6211,8.941406 0,6.021485 5.16406,0 0,-6.021485 -5.16406,0 z M 109,96.822266 l 0,6.044924 5.16406,0 0,-6.044924 -5.16406,0 z m 5.16406,0 5.18946,0 0,-6.021485 -5.18946,0 0,6.021485 z m 0,6.044924 0,6.02148 5.18946,0 0,-6.02148 -5.18946,0 z m 0,6.02148 -5.16406,0 0,6.02149 5.16406,0 0,-6.02149 z m 0,6.02149 0,6.01953 5.18946,0 0,-6.01953 -5.18946,0 z m 0,6.01953 -5.16406,0 0,6.04687 5.16406,0 0,-6.04687 z m -5.16406,0 0,-6.01953 -5.16406,0 0,6.01953 5.16406,0 z m -5.16406,0 -5.240237,0 0,6.04687 5.240237,0 0,-6.04687 z m 0,-6.01953 0,-6.02149 -5.240237,0 0,6.02149 5.240237,0 z m 0,-6.02149 5.16406,0 0,-6.02148 -5.16406,0 0,6.02148 z m 0,-6.02148 0,-6.044924 -5.240237,0 0,6.044924 5.240237,0 z m 462.91015,-21.007815 3.87891,0 0,4.685547 -3.85352,0 0,5.566406 3.87891,0 0,-4.685547 11.61328,0 0,-5.566406 3.9043,0 0,4.685547 -3.87891,0 0,5.566406 3.9043,0 0,-4.685547 3.32422,0 0,0.503907 32.06836,0 30.0039,0 0,41.892582 -31.03515,0 0,51.59179 -31.03711,0 0,30.65625 -30.00196,0 0,-20.95898 0,-8.3125 3.35157,0 0,-5.56641 -3.35157,0 0,-10.05078 3.35157,0 0,-5.59375 -3.35157,0 0,-10.05078 3.35157,0 0,-5.56641 -3.35157,0 0,-6.44922 0,-3.6289 3.35157,0 0,-5.56641 0,-4.68555 -3.35157,0 0,-10.05078 3.35157,0 0,-5.59375 -3.35157,0 0,-10.050778 3.35157,0 0,-5.566406 -3.35157,0 0,-6.449218 0,-0.503907 7.23047,0 0,-5.566406 z m -558.636715,4.685547 3.878906,0 0,5.566406 -3.878906,0 0,-5.566406 z m 15.517578,0 3.904297,0 0,5.566406 -3.904297,0 0,-5.566406 z m 108.623047,0 3.88086,0 0,5.566406 -3.88086,0 0,-5.566406 z m 15.51953,0 3.9043,0 0,5.566406 -3.9043,0 0,-5.566406 z m 325.87109,0 3.87891,0 0,5.566406 -3.87891,0 0,-5.566406 z m 15.51758,0 3.9043,0 0,5.566406 -3.9043,0 0,-5.566406 z m -473.289059,7.833984 3.878906,0 0,5.566406 -3.878906,0 0,-5.566406 z m 124.140629,0 3.8789,0 0,5.566406 -3.8789,0 0,-5.566406 z m 341.38867,0 3.8789,0 0,5.566406 -3.8789,0 0,-5.566406 z m 93.13086,0 0,5.566406 3.8789,0 0,-5.566406 -3.8789,0 z m -566.419925,7.783204 3.878906,0 0,5.59375 -3.878906,0 0,-5.59375 z m 15.517578,0 3.904297,0 0,5.59375 -3.904297,0 0,-5.59375 z m 108.623047,0 3.88086,0 0,5.59375 -3.88086,0 0,-5.59375 z m 15.51953,0 3.9043,0 0,5.59375 -3.9043,0 0,-5.59375 z m 325.87109,0 3.87891,0 0,5.59375 -3.87891,0 0,-5.59375 z m 15.51758,0 3.9043,0 0,5.59375 -3.9043,0 0,-5.59375 z m 77.61328,0 0,5.59375 3.87891,0 0,-5.59375 -3.87891,0 z m 15.51758,0 0,5.59375 3.9043,0 0,-5.59375 -3.9043,0 z m -566.419919,7.83398 3.878906,0 0,5.59375 -3.878906,0 0,-5.59375 z m 124.140629,0 3.8789,0 0,5.59375 -3.8789,0 0,-5.59375 z m 341.38867,0 3.8789,0 0,5.59375 -3.8789,0 0,-5.59375 z m 93.13086,0 0,5.59375 3.8789,0 0,-5.59375 -3.8789,0 z m -566.419925,7.81055 3.878906,0 0,5.56641 -3.878906,0 0,-5.56641 z m 15.517578,0 3.904297,0 0,5.56641 -3.904297,0 0,-5.56641 z m 108.623047,0 3.88086,0 0,5.56641 -3.88086,0 0,-5.56641 z m 15.51953,0 3.9043,0 0,5.56641 -3.9043,0 0,-5.56641 z m 325.87109,0 3.87891,0 0,5.56641 -3.87891,0 0,-5.56641 z m 15.51758,0 3.9043,0 0,5.56641 -3.9043,0 0,-5.56641 z m 77.61328,0 0,5.56641 3.87891,0 0,-5.56641 -3.87891,0 z m 15.51758,0 0,5.56641 3.9043,0 0,-5.56641 -3.9043,0 z m -566.419919,7.83398 3.878906,0 0,5.56641 -3.855469,0 0,-0.85547 -0.02344,0 0,-4.71094 z m 124.140629,0 3.8789,0 0,4.68555 0,0.88086 -3.8789,0 0,-0.88086 0,-4.68555 z m 341.38867,0 3.8789,0 0,4.68555 0,0.88086 -3.8789,0 0,-0.88086 0,-4.68555 z m 93.13086,0 0,4.68555 0,5.56641 3.8789,0 0,-5.56641 0,-4.68555 -3.8789,0 z m -7.75782,7.8086 0,5.56836 0,4.68554 3.87891,0 0,-5.56835 0,-4.68555 -3.87891,0 z m 15.51758,0 0,4.68555 0,5.56835 3.9043,0 0,-5.56835 0,-4.68555 -3.9043,0 z m -450.03906,4.68555 3.88086,0 0,5.56835 -3.88086,0 0,-4.68554 0,-0.88281 z m 15.51953,0 3.9043,0 0,5.56835 -3.9043,0 0,-5.56835 z m 201.72852,0 3.8789,0 0,5.56835 -3.8789,0 0,-5.56835 z m 15.51757,0 3.9043,0 0,5.56835 -3.9043,0 0,-5.56835 z m 108.625,0 3.87891,0 0,5.56835 -3.87891,0 0,-5.56835 z m 15.51758,0 3.9043,0 0,5.56835 -3.9043,0 0,-5.56835 z m 201.72852,1.38671 3.8789,0 0,4.18164 -3.8789,0 0,-4.18164 z m 15.51758,0 3.90429,0 0,4.18164 -3.90429,0 0,-4.18164 z m -566.39453,6.44922 3.8789,0 0,5.56641 -3.8789,0 0,-5.56641 z m 217.24804,0 3.87891,0 0,5.56641 -3.87891,0 0,-5.56641 z m 93.13086,0 0,5.56641 3.87891,0 0,-5.56641 -3.87891,0 z m 31.00977,0 3.8789,0 0,5.56641 -3.8789,0 0,-5.56641 z m 93.13086,0 0,5.56641 3.8789,0 0,-5.56641 -3.8789,0 z m 109.1289,0 3.32422,0 0,5.56641 -3.32422,0 0,-5.56641 z m 14.98828,0 3.87891,0 0,5.56641 -3.87891,0 0,-5.56641 z m -566.39648,7.78321 3.88086,0 0,5.59179 -3.88086,0 0,-5.59179 z m 15.51953,0 3.9043,0 0,5.59179 -3.9043,0 0,-5.59179 z m 201.72852,0 3.8789,0 0,5.59179 -3.8789,0 0,-5.59179 z m 15.51757,0 3.9043,0 0,5.59179 -3.9043,0 0,-5.59179 z m 77.61329,0 0,5.59179 3.88086,0 0,-5.59179 -3.88086,0 z m 15.51757,0 0,5.59179 3.90625,0 0,-5.59179 -3.90625,0 z m 15.49414,0 3.87891,0 0,5.59179 -3.87891,0 0,-5.59179 z m 15.51758,0 3.9043,0 0,5.59179 -3.9043,0 0,-5.59179 z m 77.61328,0 0,5.59179 3.87891,0 0,-5.59179 -3.87891,0 z m 15.51758,0 0,5.59179 3.9043,0 0,-5.59179 -3.9043,0 z m 108.59766,0 3.8789,0 0,5.59179 -3.8789,0 0,-5.59179 z m 15.51758,0 3.90429,0 0,5.59179 -3.90429,0 0,-5.59179 z m -566.39453,7.83398 3.8789,0 0,5.59375 -3.8789,0 0,-5.59375 z m 217.24804,0 3.87891,0 0,5.59375 -3.87891,0 0,-5.59375 z m 93.13086,0 0,5.59375 3.87891,0 0,-5.59375 -3.87891,0 z m 31.00977,0 3.8789,0 0,5.59375 -3.8789,0 0,-5.59375 z m 93.13086,0 0,5.59375 3.8789,0 0,-5.59375 -3.8789,0 z m 109.1289,0 3.32422,0 0,5.59375 -3.32422,0 0,-5.59375 z m 14.98828,0 3.87891,0 0,5.59375 -3.87891,0 0,-5.59375 z m -566.39648,7.81055 3.88086,0 0,5.5664 -3.88086,0 0,-5.5664 z m 15.51953,0 3.9043,0 0,5.5664 -3.9043,0 0,-5.5664 z m 201.72852,0 3.8789,0 0,5.5664 -3.8789,0 0,-5.5664 z m 15.51757,0 3.9043,0 0,5.5664 -3.9043,0 0,-5.5664 z m 77.61329,0 0,5.5664 3.88086,0 0,-5.5664 -3.88086,0 z m 15.51757,0 0,5.5664 3.90625,0 0,-5.5664 -3.90625,0 z m 15.49414,0 3.87891,0 0,5.5664 -3.87891,0 0,-5.5664 z m 15.51758,0 3.9043,0 0,5.5664 -3.9043,0 0,-5.5664 z m 77.61328,0 0,5.5664 3.87891,0 0,-5.5664 -3.87891,0 z m 15.51758,0 0,5.5664 3.9043,0 0,-5.5664 -3.9043,0 z m 108.59766,0 3.8789,0 0,5.5664 -3.8789,0 0,-5.5664 z m 15.51758,0 3.90429,0 0,5.5664 -3.90429,0 0,-5.5664 z m -566.39453,7.83398 3.8789,0 0,5.56641 -3.85351,0 0,-0.85547 -0.0254,0 0,-4.71094 z m 217.24804,0 3.87891,0 0,5.56641 -3.85352,0 0,-0.85547 -0.0254,0 0,-4.71094 z m 93.13086,0 0,5.56641 3.87891,0 0,-5.56641 -3.87891,0 z m 31.00977,0 3.8789,0 0,5.56641 -3.85351,0 0,-0.85547 -0.0254,0 0,-4.71094 z m 93.13086,0 0,5.56641 3.8789,0 0,-5.56641 -3.8789,0 z m 109.1289,0 3.32422,0 0,5.56641 -3.32422,0 0,-5.56641 z m 14.98828,0 3.87891,0 0,5.56641 -3.87891,0 0,-5.56641 z m -256.01757,7.8086 0,5.5664 3.88086,0 0,-5.5664 -3.88086,0 z m 15.51757,0 0,5.5664 3.90625,0 0,-5.5664 -3.90625,0 z m 108.625,0 0,5.5664 3.87891,0 0,-5.5664 -3.87891,0 z m 15.51758,0 0,5.5664 3.9043,0 0,-5.5664 -3.9043,0 z m 46.52735,6.07031 3.8789,0 0,4.18164 -3.8789,0 0,-4.18164 z m 15.51757,0 3.9043,0 0,4.18164 -3.9043,0 0,-4.18164 z m -643.9824175,6.44922 0,5.56836 3.8789063,0 0,-5.56836 -3.8789063,0 z m 15.5410155,0 0,5.56836 3.88086,0 0,-5.56836 -3.88086,0 z m 93.107422,0 0,5.56836 3.87891,0 0,-5.56836 -3.87891,0 z m 512.58594,0 3.32617,0 0,5.56836 -3.32617,0 0,-5.56836 z m 14.99023,0 3.87891,0 0,5.56836 -3.87891,0 0,-5.56836 z m -628.4414044,7.78515 0,5.5918 3.8789064,0 0,-5.5918 -3.8789064,0 z m 15.5175784,0 0,5.5918 3.904297,0 0,-5.5918 -3.904297,0 z m 77.587886,0 0,5.5918 3.88086,0 0,-5.5918 -3.88086,0 z m 15.51758,0 0,5.5918 3.9043,0 0,-5.5918 -3.9043,0 z m 512.0586,0 3.8789,0 0,5.5918 -3.8789,0 0,-5.5918 z m 15.51757,0 3.9043,0 0,5.5918 -3.9043,0 0,-5.5918 z m -643.9824175,7.83399 0,5.59179 3.8789063,0 0,-5.59179 -3.8789063,0 z m 15.5410155,0 0,5.59179 3.88086,0 0,-5.59179 -3.88086,0 z m 93.107422,0 0,5.59179 3.87891,0 0,-5.59179 -3.87891,0 z m 512.58594,0 3.32617,0 0,5.59179 -3.32617,0 0,-5.59179 z m 14.99023,0 3.87891,0 0,5.59179 -3.87891,0 0,-5.59179 z m -628.4414044,7.80859 0,5.56836 3.8789064,0 0,-5.56836 -3.8789064,0 z m 15.5175784,0 0,5.56836 3.904297,0 0,-5.56836 -3.904297,0 z m 77.587886,0 0,5.56836 3.88086,0 0,-5.56836 -3.88086,0 z m 15.51758,0 0,5.56836 3.9043,0 0,-5.56836 -3.9043,0 z m 512.0586,0 3.8789,0 0,5.56836 -3.8789,0 0,-5.56836 z m 15.51757,0 3.9043,0 0,5.56836 -3.9043,0 0,-5.56836 z m -643.9824175,7.83399 0,5.56835 0,4.68555 3.8789063,0 0,-5.56836 0,-4.68554 -3.8789063,0 z m 15.5410155,0 0,4.68554 0,5.56836 3.88086,0 0,-5.56836 0,-4.68554 -3.88086,0 z m 93.107422,0 0,4.68554 0,5.56836 3.87891,0 0,-5.56836 0,-4.68554 -3.87891,0 z m 512.58594,0 3.32617,0 0,4.68554 -3.32617,0 0,-4.68554 z m 14.99023,0 3.87891,0 0,4.68554 -3.85547,0 0,0.88281 -0.0234,0 0,-5.56835 z m -628.4414044,7.81054 0,5.56641 0,4.68555 3.8789064,0 0,-5.56641 0,-4.68555 -3.8789064,0 z m 15.5175784,0 0,4.68555 0,5.56641 3.904297,0 0,-5.56641 0,-4.68555 -3.904297,0 z m 77.587886,0 0,5.56641 0,4.68555 3.88086,0 0,-5.56641 0,-4.68555 -3.88086,0 z m 15.51758,0 0,4.68555 0,5.56641 3.9043,0 0,-5.56641 0,-4.68555 -3.9043,0 z m 349.14844,2.92188 5.11328,0 0,2.64453 0,3.375 5.24024,0 0,-6.01953 5.16406,0 0,6.01953 5.16406,0 0,-6.01953 5.18945,0 0,6.01953 4.63477,0 0,6.02148 -4.63477,0 0,6.04688 4.63477,0 0,6.01953 -4.63477,0 0,6.02148 4.63477,0 0,6.01953 -4.63477,0 0,6.04688 4.63477,0 0,6.01953 -4.63477,0 0,-2.64453 0,-3.375 -5.18945,0 0,3.375 0,2.64453 -5.16406,0 0,-2.64453 0,-3.375 -5.16406,0 0,3.375 0,2.64453 -5.24024,0 0,-2.64453 0,-3.375 -5.11328,0 0,-6.04688 5.11328,0 0,-6.01953 -5.11328,0 0,-6.02148 5.11328,0 0,-6.01953 -5.11328,0 0,-6.04688 5.11328,0 0,-6.02148 -5.11328,0 0,-6.01953 z m 5.11328,12.04101 0,6.04688 5.24024,0 0,-6.04688 -5.24024,0 z m 5.24024,0 5.16406,0 0,-6.02148 -5.16406,0 0,6.02148 z m 5.16406,0 0,6.04688 5.16406,0 0,-6.04688 -5.16406,0 z m 5.16406,0 5.18945,0 0,-6.02148 -5.18945,0 0,6.02148 z m 0,6.04688 0,6.01953 5.18945,0 0,-6.01953 -5.18945,0 z m 0,6.01953 -5.16406,0 0,6.02148 5.16406,0 0,-6.02148 z m 0,6.02148 0,6.01953 5.18945,0 0,-6.01953 -5.18945,0 z m 0,6.01953 -5.16406,0 0,6.04688 5.16406,0 0,-6.04688 z m -5.16406,0 0,-6.01953 -5.16406,0 0,6.01953 5.16406,0 z m -5.16406,0 -5.24024,0 0,6.04688 5.24024,0 0,-6.04688 z m 0,-6.01953 0,-6.02148 -5.24024,0 0,6.02148 5.24024,0 z m 0,-6.02148 5.16406,0 0,-6.01953 -5.16406,0 0,6.01953 z M 0.3515625,249.15234 l 0,5.56641 3.8789063,0 0,-5.56641 -3.8789063,0 z m 15.5410155,0 0,5.56641 3.88086,0 0,-5.56641 -3.88086,0 z m 93.107422,0 0,5.56641 3.87891,0 0,-5.56641 -3.87891,0 z m 232.74023,0 0,5.56641 3.87891,0 0,-5.56641 -3.87891,0 z m 15.54297,0 0,5.56641 3.87891,0 0,-5.56641 -3.87891,0 z m 263.77344,0 0,5.56641 3.88086,0 0,-5.56641 -3.88086,0 z m 15.54297,0 0,5.56641 3.88086,0 0,-5.56641 -3.88086,0 z m 77.56445,0 0,5.56641 3.87891,0 0,-5.56641 -3.87891,0 z m 15.54297,0 0,5.56641 3.87891,0 0,-5.56641 -3.87891,0 z m -721.5722644,7.78321 0,5.59375 3.8789064,0 0,-5.59375 -3.8789064,0 z m 15.5175784,0 0,5.59375 3.904297,0 0,-5.59375 -3.904297,0 z m 77.587886,0 0,5.59375 3.88086,0 0,-5.59375 -3.88086,0 z m 15.51758,0 0,5.59375 3.9043,0 0,-5.59375 -3.9043,0 z m 232.76563,0 0,5.59375 3.8789,0 0,-5.59375 -3.8789,0 z m 15.51758,0 0,5.59375 3.90429,0 0,-5.59375 -3.90429,0 z m 263.80078,0 0,5.59375 3.8789,0 0,-5.59375 -3.8789,0 z m 15.51758,0 0,5.59375 3.90429,0 0,-5.59375 -3.90429,0 z m 77.58789,0 0,5.59375 3.8789,0 0,-5.59375 -3.8789,0 z m 15.51757,0 0,5.59375 3.9043,0 0,-5.59375 -3.9043,0 z m -737.1132775,7.83593 0,5.5918 3.8789063,0 0,-5.5918 -3.8789063,0 z m 15.5410155,0 0,5.5918 3.88086,0 0,-5.5918 -3.88086,0 z m 93.107422,0 0,5.5918 3.87891,0 0,-5.5918 -3.87891,0 z m 232.74023,0 0,5.5918 3.87891,0 0,-5.5918 -3.87891,0 z m 15.54297,0 0,5.5918 3.87891,0 0,-5.5918 -3.87891,0 z m 263.77344,0 0,5.5918 3.88086,0 0,-5.5918 -3.88086,0 z m 15.54297,0 0,5.5918 3.88086,0 0,-5.5918 -3.88086,0 z m 77.56445,0 0,5.5918 3.87891,0 0,-5.5918 -3.87891,0 z m 15.54297,0 0,5.5918 3.87891,0 0,-5.5918 -3.87891,0 z m -721.5722644,7.8086 0,5.5664 3.8789064,0 0,-5.5664 -3.8789064,0 z m 15.5175784,0 0,5.5664 3.904297,0 0,-5.5664 -3.904297,0 z m 77.587886,0 0,5.5664 3.88086,0 0,-5.5664 -3.88086,0 z m 15.51758,0 0,5.5664 3.9043,0 0,-5.5664 -3.9043,0 z m 232.76563,0 0,5.5664 3.8789,0 0,-5.5664 -3.8789,0 z m 15.51758,0 0,5.5664 3.90429,0 0,-5.5664 -3.90429,0 z m 263.80078,0 0,5.5664 3.8789,0 0,-5.5664 -3.8789,0 z m 15.51758,0 0,5.5664 3.90429,0 0,-5.5664 -3.90429,0 z m 77.58789,0 0,5.5664 3.8789,0 0,-5.5664 -3.8789,0 z m 15.51757,0 0,5.5664 3.9043,0 0,-5.5664 -3.9043,0 z m -737.1132775,7.83398 0,5.56836 0,4.68555 3.8789063,0 0,-5.56836 0,-4.68555 -3.8789063,0 z m 15.5410155,0 0,4.68555 0,5.56836 3.88086,0 0,-5.56836 0,-4.68555 -3.88086,0 z m 93.107422,0 0,5.56836 3.87891,0 0,-5.56836 -3.87891,0 z m 232.74023,0 0,5.56836 0,4.68555 3.87891,0 0,-5.56836 0,-4.68555 -3.87891,0 z m 15.54297,0 0,4.68555 0,5.56836 3.87891,0 0,-5.56836 0,-4.68555 -3.87891,0 z m 263.77344,0 0,5.56836 0,4.68555 3.88086,0 0,-5.56836 0,-4.68555 -3.88086,0 z m 15.54297,0 0,4.68555 0,5.56836 3.88086,0 0,-5.56836 0,-4.68555 -3.88086,0 z m 77.56445,0 0,5.56836 0,4.68555 3.87891,0 0,-5.56836 0,-4.68555 -3.87891,0 z m 15.54297,0 0,4.68555 0,5.56836 3.87891,0 0,-5.56836 0,-4.68555 -3.87891,0 z m -721.5722644,7.8086 0,5.56836 0,4.68554 3.8789064,0 0,-5.56836 0,-4.68554 -3.8789064,0 z m 15.5175784,0 0,4.68554 0,5.56836 3.904297,0 0,-5.56836 0,-4.68554 -3.904297,0 z m 77.587886,0 0,5.56836 3.88086,0 0,-5.56836 -3.88086,0 z m 15.51758,0 0,5.56836 3.9043,0 0,-5.56836 -3.9043,0 z m 232.76563,0 0,5.56836 0,4.68554 3.8789,0 0,-5.56836 0,-4.68554 -3.8789,0 z m 15.51758,0 0,4.68554 0,5.56836 3.90429,0 0,-5.56836 0,-4.68554 -3.90429,0 z m 263.80078,0 0,5.56836 0,4.68554 3.8789,0 0,-5.56836 0,-4.68554 -3.8789,0 z m 15.51758,0 0,4.68554 0,5.56836 3.90429,0 0,-5.56836 0,-4.68554 -3.90429,0 z m 77.58789,0 0,5.56836 0,4.68554 3.8789,0 0,-5.56836 0,-4.68554 -3.8789,0 z m 15.51757,0 0,4.68554 0,5.56836 3.9043,0 0,-5.56836 0,-4.68554 -3.9043,0 z m -698.320309,6.07226 3.878907,0 0,4.18164 -3.878907,0 0,-4.18164 z m 15.517578,0 3.904297,0 0,4.18164 -3.904297,0 0,-4.18164 z m 450.013671,0 3.87891,0 0,4.18164 -3.87891,0 0,-4.18164 z m 15.51758,0 3.9043,0 0,4.18164 -3.9043,0 0,-4.18164 z m -519.8417975,6.44922 0,5.56641 3.8789063,0 0,-5.56641 -3.8789063,0 z m 15.5410155,0 0,5.56641 3.88086,0 0,-5.56641 -3.88086,0 z m 31.011719,0 3.878906,0 0,5.56641 -3.878906,0 0,-5.56641 z m 77.587893,0 0,5.56641 3.8789,0 0,-5.56641 -3.8789,0 z m 15.54297,0 0,5.56641 3.8789,0 0,-5.56641 -3.8789,0 z m 93.10546,0 0,5.56641 3.87891,0 0,-5.56641 -3.87891,0 z m 108.59961,0 0,5.56641 3.87891,0 0,-5.56641 -3.87891,0 z m 15.54297,0 0,5.56641 3.87891,0 0,-5.56641 -3.87891,0 z m 77.5625,0 0,5.56641 3.87891,0 0,-5.56641 -3.87891,0 z m 15.54297,0 0,5.56641 3.87891,0 0,-5.56641 -3.87891,0 z m 62.04492,0 3.87891,0 0,5.56641 -3.87891,0 0,-5.56641 z m 62.09571,0 0,5.56641 3.8789,0 0,-5.56641 -3.8789,0 z m 46.52734,0 0,5.56641 3.88086,0 0,-5.56641 -3.88086,0 z m 15.54297,0 0,5.56641 3.88086,0 0,-5.56641 -3.88086,0 z m 77.56445,0 0,5.56641 3.87891,0 0,-5.56641 -3.87891,0 z m 15.54297,0 0,5.56641 3.87891,0 0,-5.56641 -3.87891,0 z m -721.5722644,7.7832 0,5.5918 3.8789064,0 0,-5.5918 -3.8789064,0 z m 15.5175784,0 0,5.5918 3.904297,0 0,-5.5918 -3.904297,0 z m 15.492187,0 3.878907,0 0,5.5918 -3.878907,0 0,-5.5918 z m 15.517578,0 3.904297,0 0,5.5918 -3.904297,0 0,-5.5918 z m 77.613281,0 0,5.5918 3.88086,0 0,-5.5918 -3.88086,0 z m 15.51758,0 0,5.5918 3.90625,0 0,-5.5918 -3.90625,0 z m 77.58984,0 0,5.5918 3.87891,0 0,-5.5918 -3.87891,0 z m 15.51758,0 0,5.5918 3.9043,0 0,-5.5918 -3.9043,0 z m 108.62305,0 0,5.5918 3.8789,0 0,-5.5918 -3.8789,0 z m 15.51758,0 0,5.5918 3.90429,0 0,-5.5918 -3.90429,0 z m 77.58789,0 0,5.5918 3.88086,0 0,-5.5918 -3.88086,0 z m 15.51757,0 0,5.5918 3.90625,0 0,-5.5918 -3.90625,0 z m 46.5293,0 3.87891,0 0,5.5918 -3.87891,0 0,-5.5918 z m 15.51758,0 3.9043,0 0,5.5918 -3.9043,0 0,-5.5918 z m 46.57812,0 0,5.5918 3.87891,0 0,-5.5918 -3.87891,0 z m 15.51758,0 0,5.5918 3.9043,0 0,-5.5918 -3.9043,0 z m 46.55274,0 0,5.5918 3.8789,0 0,-5.5918 -3.8789,0 z m 15.51758,0 0,5.5918 3.90429,0 0,-5.5918 -3.90429,0 z m 77.58789,0 0,5.5918 3.8789,0 0,-5.5918 -3.8789,0 z m 15.51757,0 0,5.5918 3.9043,0 0,-5.5918 -3.9043,0 z m -737.1132775,7.83399 0,5.59375 3.8789063,0 0,-5.59375 -3.8789063,0 z m 15.5410155,0 0,5.59375 3.88086,0 0,-5.59375 -3.88086,0 z m 31.011719,0 3.878906,0 0,5.59375 -3.878906,0 0,-5.59375 z m 77.587893,0 0,5.59375 3.8789,0 0,-5.59375 -3.8789,0 z m 15.54297,0 0,5.59375 3.8789,0 0,-5.59375 -3.8789,0 z m 93.10546,0 0,5.59375 3.87891,0 0,-5.59375 -3.87891,0 z m 108.59961,0 0,5.59375 3.87891,0 0,-5.59375 -3.87891,0 z m 15.54297,0 0,5.59375 3.87891,0 0,-5.59375 -3.87891,0 z m 77.5625,0 0,5.59375 3.87891,0 0,-5.59375 -3.87891,0 z m 15.54297,0 0,5.59375 3.87891,0 0,-5.59375 -3.87891,0 z m 62.04492,0 3.87891,0 0,5.59375 -3.87891,0 0,-5.59375 z m 62.09571,0 0,5.59375 3.8789,0 0,-5.59375 -3.8789,0 z m 46.52734,0 0,5.59375 3.88086,0 0,-5.59375 -3.88086,0 z m 15.54297,0 0,5.59375 3.88086,0 0,-5.59375 -3.88086,0 z m 77.56445,0 0,5.59375 3.87891,0 0,-5.59375 -3.87891,0 z m 15.54297,0 0,5.59375 3.87891,0 0,-5.59375 -3.87891,0 z m -721.5722644,7.81055 0,5.5664 3.8789064,0 0,-5.5664 -3.8789064,0 z m 15.5175784,0 0,5.5664 3.904297,0 0,-5.5664 -3.904297,0 z m 15.492187,0 3.878907,0 0,5.5664 -3.878907,0 0,-5.5664 z m 15.517578,0 3.904297,0 0,5.5664 -3.904297,0 0,-5.5664 z m 77.613281,0 0,5.5664 3.88086,0 0,-5.5664 -3.88086,0 z m 15.51758,0 0,5.5664 3.90625,0 0,-5.5664 -3.90625,0 z m 77.58984,0 0,5.5664 3.87891,0 0,-5.5664 -3.87891,0 z m 15.51758,0 0,5.5664 3.9043,0 0,-5.5664 -3.9043,0 z m 108.62305,0 0,5.5664 3.8789,0 0,-5.5664 -3.8789,0 z m 15.51758,0 0,5.5664 3.90429,0 0,-5.5664 -3.90429,0 z m 77.58789,0 0,5.5664 3.88086,0 0,-5.5664 -3.88086,0 z m 15.51757,0 0,5.5664 3.90625,0 0,-5.5664 -3.90625,0 z m 46.5293,0 3.87891,0 0,5.5664 -3.87891,0 0,-5.5664 z m 15.51758,0 3.9043,0 0,5.5664 -3.9043,0 0,-5.5664 z m 46.57812,0 0,5.5664 3.87891,0 0,-5.5664 -3.87891,0 z m 15.51758,0 0,5.5664 3.9043,0 0,-5.5664 -3.9043,0 z m 46.55274,0 0,5.5664 3.8789,0 0,-5.5664 -3.8789,0 z m 15.51758,0 0,5.5664 3.90429,0 0,-5.5664 -3.90429,0 z m 77.58789,0 0,5.5664 3.8789,0 0,-5.5664 -3.8789,0 z m 15.51757,0 0,5.5664 3.9043,0 0,-5.5664 -3.9043,0 z m -737.1132775,7.83398 0,5.56641 3.8789063,0 0,-5.56641 -3.8789063,0 z m 15.5410155,0 0,5.56641 3.88086,0 0,-5.56641 -3.88086,0 z m 31.011719,0 3.878906,0 0,5.56641 -3.853515,0 0,-0.85547 -0.02539,0 0,-4.71094 z m 77.587893,0 0,5.56641 0,4.68554 3.8789,0 0,-5.5664 0,-4.68555 -3.8789,0 z m 15.54297,0 0,4.68555 0,5.5664 3.8789,0 0,-5.5664 0,-4.68555 -3.8789,0 z m 93.10546,0 0,4.68555 0,5.5664 3.87891,0 0,-5.5664 0,-4.68555 -3.87891,0 z m 108.59961,0 0,5.56641 3.87891,0 0,-5.56641 -3.87891,0 z m 15.54297,0 0,5.56641 3.87891,0 0,-5.56641 -3.87891,0 z m 77.5625,0 0,5.56641 0,4.68554 3.87891,0 0,-5.5664 0,-4.68555 -3.87891,0 z m 15.54297,0 0,4.68555 0,5.5664 3.87891,0 0,-5.5664 0,-4.68555 -3.87891,0 z m 62.04492,0 3.87891,0 0,5.56641 -3.85352,0 0,-0.85547 -0.0254,0 0,-4.71094 z m 62.09571,0 0,4.68555 0,5.5664 3.8789,0 0,-5.5664 0,-4.68555 -3.8789,0 z m 46.52734,0 0,5.56641 3.88086,0 0,-5.56641 -3.88086,0 z m 15.54297,0 0,5.56641 3.88086,0 0,-5.56641 -3.88086,0 z m 77.56445,0 0,5.56641 3.87891,0 0,-5.56641 -3.87891,0 z m 15.54297,0 0,5.56641 3.87891,0 0,-5.56641 -3.87891,0 z m -636.249999,4.68555 0,5.5664 3.878907,0 0,-5.5664 -3.878907,0 z m 15.542969,0 0,5.5664 3.87891,0 0,-5.5664 -3.87891,0 z m -100.8652344,3.12304 0,5.56836 3.8789064,0 0,-5.56836 -3.8789064,0 z m 15.5175784,0 0,5.56836 3.904297,0 0,-5.56836 -3.904297,0 z m 108.623046,0 0,5.56836 0,4.68555 3.88086,0 0,-5.56836 0,-4.68555 -3.88086,0 z m 15.51758,0 0,4.68555 0,5.56836 3.90625,0 0,-5.56836 0,-4.68555 -3.90625,0 z m 77.58984,0 0,5.56836 0,4.68555 3.87891,0 0,-5.56836 0,-4.68555 -3.87891,0 z m 15.51758,0 0,4.68555 0,5.56836 3.9043,0 0,-5.56836 0,-4.68555 -3.9043,0 z m 108.62305,0 0,5.56836 3.8789,0 0,-5.56836 -3.8789,0 z m 15.51758,0 0,5.56836 3.90429,0 0,-5.56836 -3.90429,0 z m 77.58789,0 0,5.56836 0,4.68555 3.88086,0 0,-5.56836 0,-4.68555 -3.88086,0 z m 15.51757,0 0,4.68555 0,5.56836 3.90625,0 0,-5.56836 0,-4.68555 -3.90625,0 z m 108.625,0 0,5.56836 0,4.68555 3.87891,0 0,-5.56836 0,-4.68555 -3.87891,0 z m 15.51758,0 0,4.68555 0,5.56836 3.9043,0 0,-5.56836 0,-4.68555 -3.9043,0 z m 46.55274,0 0,5.56836 3.8789,0 0,-5.56836 -3.8789,0 z m 15.51758,0 0,5.56836 3.90429,0 0,-5.56836 -3.90429,0 z m 77.58789,0 0,5.56836 3.8789,0 0,-5.56836 -3.8789,0 z m 15.51757,0 0,5.56836 3.9043,0 0,-5.56836 -3.9043,0 z M 101.24023,344.5 l 0,5.56836 3.88086,0 0,-5.56836 -3.88086,0 z m 15.51758,0 0,5.56836 3.9043,0 0,-5.56836 -3.9043,0 z m -23.300779,7.83398 0,5.56836 3.878907,0 0,-5.56836 -3.878907,0 z m 15.542969,0 0,5.56836 3.87891,0 0,-5.56836 -3.87891,0 z m 15.49219,0 0,5.56836 3.8789,0 0,-5.56836 -3.8789,0 z m 15.54297,0 0,5.56836 3.8789,0 0,-5.56836 -3.8789,0 z m 77.5625,0 0,5.56836 3.8789,0 0,-5.56836 -3.8789,0 z m 15.54296,0 0,5.56836 3.87891,0 0,-5.56836 -3.87891,0 z m 201.70508,0 0,5.56836 3.87891,0 0,-5.56836 -3.87891,0 z m 15.54297,0 0,5.56836 3.87891,0 0,-5.56836 -3.87891,0 z m 15.49219,0 0,5.56836 3.87891,0 0,-5.56836 -3.87891,0 z m 15.54297,0 0,5.56836 3.8789,0 0,-5.56836 -3.8789,0 z m 77.5625,0 0,5.56836 3.88086,0 0,-5.56836 -3.88086,0 z m 15.54297,0 0,5.56836 3.8789,0 0,-5.56836 -3.8789,0 z m -473.28907,7.78516 0,5.5918 3.88086,0 0,-5.5918 -3.88086,0 z m 15.51758,0 0,5.5918 3.9043,0 0,-5.5918 -3.9043,0 z m 15.51758,0 0,5.5918 3.88086,0 0,-5.5918 -3.88086,0 z m 15.51758,0 0,5.5918 3.90625,0 0,-5.5918 -3.90625,0 z m 77.58984,0 0,5.5918 3.87891,0 0,-5.5918 -3.87891,0 z m 15.51758,0 0,5.5918 3.9043,0 0,-5.5918 -3.9043,0 z m 201.72852,0 0,5.5918 3.88086,0 0,-5.5918 -3.88086,0 z m 15.51757,0 0,5.5918 3.90625,0 0,-5.5918 -3.90625,0 z m 15.51758,0 0,5.5918 3.88086,0 0,-5.5918 -3.88086,0 z m 15.51758,0 0,5.5918 3.90625,0 0,-5.5918 -3.90625,0 z m 77.58984,0 0,5.5918 3.87891,0 0,-5.5918 -3.87891,0 z m 15.51758,0 0,5.5918 3.9043,0 0,-5.5918 -3.9043,0 z m -488.832029,7.83398 0,5.5918 3.878907,0 0,-5.5918 -3.878907,0 z m 15.542969,0 0,5.5918 3.87891,0 0,-5.5918 -3.87891,0 z m 15.49219,0 0,5.5918 3.8789,0 0,-5.5918 -3.8789,0 z m 15.54297,0 0,5.5918 3.8789,0 0,-5.5918 -3.8789,0 z m 77.5625,0 0,5.5918 3.8789,0 0,-5.5918 -3.8789,0 z m 15.54296,0 0,5.5918 3.87891,0 0,-5.5918 -3.87891,0 z m 201.70508,0 0,5.5918 3.87891,0 0,-5.5918 -3.87891,0 z m 15.54297,0 0,5.5918 3.87891,0 0,-5.5918 -3.87891,0 z m 15.49219,0 0,5.5918 3.87891,0 0,-5.5918 -3.87891,0 z m 15.54297,0 0,5.5918 3.8789,0 0,-5.5918 -3.8789,0 z m 77.5625,0 0,5.5918 3.88086,0 0,-5.5918 -3.88086,0 z m 15.54297,0 0,5.5918 3.8789,0 0,-5.5918 -3.8789,0 z m -473.28907,7.8086 0,5.56836 3.88086,0 0,-5.56836 -3.88086,0 z m 15.51758,0 0,5.56836 3.9043,0 0,-5.56836 -3.9043,0 z m 15.51758,0 0,5.56836 3.88086,0 0,-5.56836 -3.88086,0 z m 15.51758,0 0,5.56836 3.90625,0 0,-5.56836 -3.90625,0 z m 77.58984,0 0,5.56836 3.87891,0 0,-5.56836 -3.87891,0 z m 15.51758,0 0,5.56836 3.9043,0 0,-5.56836 -3.9043,0 z m 201.72852,0 0,5.56836 3.88086,0 0,-5.56836 -3.88086,0 z m 15.51757,0 0,5.56836 3.90625,0 0,-5.56836 -3.90625,0 z m 15.51758,0 0,5.56836 3.88086,0 0,-5.56836 -3.88086,0 z m 15.51758,0 0,5.56836 3.90625,0 0,-5.56836 -3.90625,0 z m 77.58984,0 0,5.56836 3.87891,0 0,-5.56836 -3.87891,0 z m 15.51758,0 0,5.56836 3.9043,0 0,-5.56836 -3.9043,0 z m -488.832029,7.83594 0,5.5664 0,4.68555 3.878907,0 0,-5.56641 0,-4.68554 -3.878907,0 z m 15.542969,0 0,4.68554 0,5.56641 3.87891,0 0,-5.56641 0,-4.68554 -3.87891,0 z m 15.49219,0 0,5.5664 0,4.68555 3.8789,0 0,-5.56641 0,-4.68554 -3.8789,0 z m 15.54297,0 0,4.68554 0,5.56641 3.8789,0 0,-5.56641 0,-4.68554 -3.8789,0 z m 77.5625,0 0,5.5664 3.8789,0 0,-5.5664 -3.8789,0 z m 15.54296,0 0,5.5664 3.87891,0 0,-5.5664 -3.87891,0 z m 201.70508,0 0,5.5664 3.87891,0 0,-5.5664 -3.87891,0 z m 15.54297,0 0,5.5664 3.87891,0 0,-5.5664 -3.87891,0 z m 15.49219,0 0,5.5664 0,4.68555 3.87891,0 0,-5.56641 0,-4.68554 -3.87891,0 z m 15.54297,0 0,4.68554 0,5.56641 3.8789,0 0,-5.56641 0,-4.68554 -3.8789,0 z m 77.5625,0 0,5.5664 3.88086,0 0,-5.5664 -3.88086,0 z m 15.54297,0 0,5.5664 3.8789,0 0,-5.5664 -3.8789,0 z m -232.78907,4.68554 0,5.56641 3.87891,0 0,-5.56641 -3.87891,0 z m 15.54297,0 0,5.56641 3.87891,0 0,-5.56641 -3.87891,0 z m -256.04297,3.12305 0,5.56641 0,4.68554 3.88086,0 0,-5.5664 0,-4.68555 -3.88086,0 z m 15.51758,0 0,4.68555 0,5.5664 3.9043,0 0,-5.5664 0,-4.68555 -3.9043,0 z m 15.51758,0 0,5.56641 0,4.68554 3.88086,0 0,-5.5664 0,-4.68555 -3.88086,0 z m 15.51758,0 0,4.68555 0,5.5664 3.90625,0 0,-5.5664 0,-4.68555 -3.90625,0 z m 77.58984,0 0,5.56641 3.87891,0 0,-5.56641 -3.87891,0 z m 15.51758,0 0,5.56641 3.9043,0 0,-5.56641 -3.9043,0 z m 201.72852,0 0,5.56641 3.88086,0 0,-5.56641 -3.88086,0 z m 15.51757,0 0,5.56641 3.90625,0 0,-5.56641 -3.90625,0 z m 15.51758,0 0,5.56641 0,4.68554 3.88086,0 0,-5.5664 0,-4.68555 -3.88086,0 z m 15.51758,0 0,4.68555 0,5.5664 3.90625,0 0,-5.5664 0,-4.68555 -3.90625,0 z m 77.58984,0 0,5.56641 3.87891,0 0,-5.56641 -3.87891,0 z m 15.51758,0 0,5.56641 3.9043,0 0,-5.56641 -3.9043,0 z m -232.76562,4.68555 0,5.5664 3.8789,0 0,-5.5664 -3.8789,0 z m 15.51758,0 0,5.5664 3.90429,0 0,-5.5664 -3.90429,0 z m -271.583989,7.83398 0,5.56836 3.878907,0 0,-5.56836 -3.878907,0 z m 15.542969,0 0,5.56836 3.87891,0 0,-5.56836 -3.87891,0 z m 15.49219,0 0,5.56836 3.8789,0 0,-5.56836 -3.8789,0 z m 15.54297,0 0,5.56836 3.8789,0 0,-5.56836 -3.8789,0 z m 201.70507,0 0,5.56836 3.87891,0 0,-5.56836 -3.87891,0 z m 15.54297,0 0,5.56836 3.87891,0 0,-5.56836 -3.87891,0 z m 108.59766,0 0,5.56836 3.87891,0 0,-5.56836 -3.87891,0 z m 15.54297,0 0,5.56836 3.8789,0 0,-5.56836 -3.8789,0 z m 15.49219,0 0,5.56836 3.8789,0 0,-5.56836 -3.8789,0 z m 15.54296,0 0,5.56836 3.87891,0 0,-5.56836 -3.87891,0 z m -411.21875,7.78516 0,5.59179 3.88086,0 0,-5.59179 -3.88086,0 z m 15.51758,0 0,5.59179 3.9043,0 0,-5.59179 -3.9043,0 z m 15.51758,0 0,5.59179 3.88086,0 0,-5.59179 -3.88086,0 z m 15.51758,0 0,5.59179 3.90625,0 0,-5.59179 -3.90625,0 z m 201.73047,0 0,5.59179 3.8789,0 0,-5.59179 -3.8789,0 z m 15.51758,0 0,5.59179 3.90429,0 0,-5.59179 -3.90429,0 z m 108.62304,0 0,5.59179 3.88086,0 0,-5.59179 -3.88086,0 z m 15.51758,0 0,5.59179 3.90625,0 0,-5.59179 -3.90625,0 z m 15.51953,0 0,5.59179 3.87891,0 0,-5.59179 -3.87891,0 z m 15.51758,0 0,5.59179 3.9043,0 0,-5.59179 -3.9043,0 z m -426.761719,7.83398 0,5.5918 3.878907,0 0,-5.5918 -3.878907,0 z m 15.542969,0 0,5.5918 3.87891,0 0,-5.5918 -3.87891,0 z m 15.49219,0 0,5.5918 3.8789,0 0,-5.5918 -3.8789,0 z m 15.54297,0 0,5.5918 3.8789,0 0,-5.5918 -3.8789,0 z m 201.70507,0 0,5.5918 3.87891,0 0,-5.5918 -3.87891,0 z m 15.54297,0 0,5.5918 3.87891,0 0,-5.5918 -3.87891,0 z m 108.59766,0 0,5.5918 3.87891,0 0,-5.5918 -3.87891,0 z m 15.54297,0 0,5.5918 3.8789,0 0,-5.5918 -3.8789,0 z m 15.49219,0 0,5.5918 3.8789,0 0,-5.5918 -3.8789,0 z m 15.54296,0 0,5.5918 3.87891,0 0,-5.5918 -3.87891,0 z m -411.21875,7.8086 0,5.5664 3.88086,0 0,-5.5664 -3.88086,0 z m 15.51758,0 0,5.5664 3.9043,0 0,-5.5664 -3.9043,0 z m 15.51758,0 0,5.5664 3.88086,0 0,-5.5664 -3.88086,0 z m 15.51758,0 0,5.5664 3.90625,0 0,-5.5664 -3.90625,0 z m 201.73047,0 0,5.5664 3.8789,0 0,-5.5664 -3.8789,0 z m 15.51758,0 0,5.5664 3.90429,0 0,-5.5664 -3.90429,0 z m 108.62304,0 0,5.5664 3.88086,0 0,-5.5664 -3.88086,0 z m 15.51758,0 0,5.5664 3.90625,0 0,-5.5664 -3.90625,0 z m 15.51953,0 0,5.5664 3.87891,0 0,-5.5664 -3.87891,0 z m 15.51758,0 0,5.5664 3.9043,0 0,-5.5664 -3.9043,0 z m -426.761719,7.83398 0,5.56836 3.878907,0 0,-5.56836 -3.878907,0 z m 15.542969,0 0,5.56836 3.87891,0 0,-5.56836 -3.87891,0 z m 15.49219,0 0,5.56836 3.8789,0 0,-5.56836 -3.8789,0 z m 15.54297,0 0,5.56836 3.8789,0 0,-5.56836 -3.8789,0 z m 201.70507,0 0,5.56836 0,4.68555 3.87891,0 0,-5.56836 0,-4.68555 -3.87891,0 z m 15.54297,0 0,4.68555 0,5.56836 3.87891,0 0,-5.56836 0,-4.68555 -3.87891,0 z m 108.59766,0 0,5.56836 3.87891,0 0,-5.56836 -3.87891,0 z m 15.54297,0 0,5.56836 3.8789,0 0,-5.56836 -3.8789,0 z m 15.49219,0 0,5.56836 3.8789,0 0,-5.56836 -3.8789,0 z m 15.54296,0 0,5.56836 3.87891,0 0,-5.56836 -3.87891,0 z m -411.21875,7.81055 0,5.5664 3.88086,0 0,-5.5664 -3.88086,0 z m 15.51758,0 0,5.5664 3.9043,0 0,-5.5664 -3.9043,0 z m 15.51758,0 0,5.5664 3.88086,0 0,-5.5664 -3.88086,0 z m 15.51758,0 0,5.5664 3.90625,0 0,-5.5664 -3.90625,0 z m 201.73047,0 0,5.5664 0,4.68555 3.8789,0 0,-5.56641 0,-4.68554 -3.8789,0 z m 15.51758,0 0,4.68554 0,5.56641 3.90429,0 0,-5.56641 0,-4.68554 -3.90429,0 z m 108.62304,0 0,5.5664 3.88086,0 0,-5.5664 -3.88086,0 z m 15.51758,0 0,5.5664 3.90625,0 0,-5.5664 -3.90625,0 z m 15.51953,0 0,5.5664 3.87891,0 0,-5.5664 -3.87891,0 z m 15.51758,0 0,5.5664 3.9043,0 0,-5.5664 -3.9043,0 z m -488.832031,12.51953 0,5.5664 3.878906,0 0,-5.5664 -3.878906,0 z m 15.542969,0 0,5.5664 3.878906,0 0,-5.5664 -3.878906,0 z m 294.810542,0 0,5.5664 3.87891,0 0,-5.5664 -3.87891,0 z m 15.54297,0 0,5.5664 3.87891,0 0,-5.5664 -3.87891,0 z m -318.113278,7.7832 0,5.59375 3.878906,0 0,-5.59375 -3.878906,0 z m 15.517578,0 0,5.59375 3.904297,0 0,-5.59375 -3.904297,0 z m 294.83594,0 0,5.59375 3.8789,0 0,-5.59375 -3.8789,0 z m 15.51758,0 0,5.59375 3.90429,0 0,-5.59375 -3.90429,0 z m -333.654301,7.83399 0,5.59375 3.878906,0 0,-5.59375 -3.878906,0 z m 15.542969,0 0,5.59375 3.878906,0 0,-5.59375 -3.878906,0 z m 294.810542,0 0,5.59375 3.87891,0 0,-5.59375 -3.87891,0 z m 15.54297,0 0,5.59375 3.87891,0 0,-5.59375 -3.87891,0 z m -318.113278,7.81054 0,5.56641 3.878906,0 0,-5.56641 -3.878906,0 z m 15.517578,0 0,5.56641 3.904297,0 0,-5.56641 -3.904297,0 z m 294.83594,0 0,5.56641 3.8789,0 0,-5.56641 -3.8789,0 z m 15.51758,0 0,5.56641 3.90429,0 0,-5.56641 -3.90429,0 z m -333.654301,7.83399 0,5.5664 3.878906,0 0,-5.5664 -3.878906,0 z m 15.542969,0 0,5.5664 3.878906,0 0,-5.5664 -3.878906,0 z m 294.810542,0 0,5.5664 3.87891,0 0,-5.5664 -3.87891,0 z m 15.54297,0 0,5.5664 3.87891,0 0,-5.5664 -3.87891,0 z m -318.113278,7.80859 0,5.56836 3.878906,0 0,-5.56836 -3.878906,0 z m 15.517578,0 0,5.56836 3.904297,0 0,-5.56836 -3.904297,0 z m 294.83594,0 0,5.56836 3.8789,0 0,-5.56836 -3.8789,0 z m 15.51758,0 0,5.56836 3.90429,0 0,-5.56836 -3.90429,0 z"
       style="font-style:normal;font-variant:normal;font-weight:normal;font-stretch:normal;font-size:45.96659851px;line-height:100%;font-family:'Bitstream Vera Sans Mono';-inkscape-font-specification:'Bitstream Vera Sans Mono, Normal';text-align:start;letter-spacing:0px;word-spacing:0px;writing-mode:lr-tb;text-anchor:start;fill:#008000;fill-opacity:1;stroke:none;stroke-width:1px;stroke-linecap:butt;stroke-linejoin:miter;stroke-opacity:1" />
  </g>
</svg>
